<?xml version="1.0" standalone="no"?>
<!DOCTYPE svg PUBLIC "-//W3C//DTD SVG 20010904//EN"
 "http://www.w3.org/TR/2001/REC-SVG-20010904/DTD/svg10.dtd">
<svg version="1.0" xmlns="http://www.w3.org/2000/svg"
 width="474.000000pt" height="474.000000pt" viewBox="0 0 474.000000 474.000000"
 preserveAspectRatio="xMidYMid meet">
<metadata>
Created by potrace 1.11, written by Peter Selinger 2001-2013
</metadata>
<g transform="translate(0.000000,474.000000) scale(0.100000,-0.100000)"
fill="#000000" stroke="none">
<path d="M0 4330 c0 -267 3 -410 10 -410 6 0 10 5 10 10 0 6 9 10 20 10 11 0
20 5 20 10 0 6 7 10 15 10 8 0 16 6 17 13 5 48 18 67 44 67 15 0 24 6 24 16 0
20 24 44 44 44 10 0 16 9 16 24 0 26 19 39 68 44 6 1 12 9 12 17 0 8 5 15 11
15 6 0 20 11 31 25 11 14 26 25 33 25 7 0 22 11 33 25 11 13 45 34 76 45 31
12 56 26 56 31 0 5 5 9 11 9 6 0 17 7 25 15 9 8 25 15 37 15 18 0 20 2 7 11
-12 9 -10 10 9 6 31 -7 71 12 71 33 0 17 19 27 93 50 20 6 37 16 37 21 0 5 7
9 15 9 8 0 15 -4 15 -10 0 -18 22 -10 27 10 5 20 12 23 48 21 12 -1 32 7 44
19 14 11 38 20 56 20 23 0 34 5 38 19 2 10 17 21 33 25 50 12 128 26 162 29
18 2 36 8 40 14 4 6 25 13 47 15 25 2 39 8 38 16 -2 6 4 12 12 12 8 0 15 -7
15 -15 0 -8 7 -15 16 -15 10 0 14 6 11 14 -8 19 14 26 79 26 30 0 54 5 54 10
0 7 -270 10 -790 10 l-790 0 0 -410z"/>
<path d="M3295 4724 c10 -11 39 -18 77 -21 42 -2 71 -11 91 -25 21 -15 32 -18
35 -10 5 16 20 15 39 -4 9 -8 24 -13 33 -11 23 6 115 -25 115 -38 0 -6 25 -12
55 -15 32 -3 54 -10 53 -16 -1 -6 7 -9 20 -7 13 3 32 -4 46 -16 13 -12 32 -21
41 -21 9 0 26 -11 39 -26 14 -16 28 -23 40 -19 10 3 27 -3 41 -15 15 -13 31
-18 46 -14 17 4 26 0 35 -18 7 -12 13 -26 12 -29 -1 -3 8 -4 20 -2 13 3 32 -4
46 -16 13 -12 33 -21 43 -21 11 0 22 -9 25 -20 3 -11 20 -24 42 -30 64 -20 91
-32 91 -41 0 -5 -7 -9 -16 -9 -13 0 -14 -3 -5 -14 7 -8 20 -12 31 -9 22 6 50
-18 50 -41 0 -9 5 -16 10 -16 6 0 10 -7 10 -15 0 -8 5 -15 10 -15 6 0 10 6 10
14 0 10 9 6 28 -12 17 -17 22 -28 15 -30 -23 -6 -13 -22 13 -22 16 0 34 -10
46 -25 11 -14 26 -25 33 -25 13 0 47 -50 50 -75 1 -5 3 -16 3 -22 1 -7 9 -13
17 -13 8 0 15 -6 15 -13 0 -7 9 -18 20 -25 20 -12 20 -10 20 403 l0 415 -731
0 c-676 0 -729 -1 -714 -16z"/>
<path d="M2633 4713 c9 -2 23 -2 30 0 6 3 -1 5 -18 5 -16 0 -22 -2 -12 -5z"/>
<path d="M2470 4611 l-25 -8 25 -6 c56 -15 208 -45 255 -52 68 -9 258 -59 358
-94 331 -116 630 -308 880 -566 178 -183 365 -485 461 -745 157 -423 168 -951
30 -1407 -116 -382 -382 -777 -692 -1027 -104 -84 -112 -101 -15 -33 24 17 45
28 48 25 5 -5 -116 -122 -167 -161 -14 -11 -7 -9 17 4 92 53 244 195 371 349
16 19 36 42 44 50 224 239 319 403 431 745 47 142 47 143 80 300 30 140 32
166 35 381 2 252 3 246 -63 514 -58 234 -98 351 -178 517 -92 191 -135 254
-293 433 -244 275 -333 353 -547 482 -220 132 -449 222 -703 274 -131 27 -308
39 -352 25z"/>
<path d="M1905 4579 c-203 -29 -388 -83 -543 -159 -189 -93 -346 -200 -517
-353 -96 -86 -241 -244 -237 -258 1 -6 -2 -8 -7 -4 -6 3 -15 -5 -22 -17 -7
-13 -26 -39 -43 -59 -44 -52 -187 -292 -189 -317 0 -11 -4 -19 -7 -17 -5 3
-31 -53 -35 -75 0 -3 -8 -18 -17 -35 -8 -16 -18 -47 -22 -68 -4 -21 -11 -35
-17 -32 -5 4 -9 -5 -9 -19 0 -13 -5 -37 -12 -53 -14 -35 -12 -29 -42 -148 -44
-175 -57 -280 -63 -510 -8 -331 20 -532 113 -805 45 -131 131 -318 195 -425
10 -16 26 -43 35 -60 17 -31 64 -90 64 -81 0 3 -9 21 -21 40 -38 65 -5 37 66
-56 39 -50 95 -115 125 -145 87 -87 120 -96 44 -13 -77 84 -97 107 -122 145
-15 22 -29 42 -32 45 -9 9 -53 72 -118 170 -285 426 -393 1000 -286 1518 25
122 87 318 106 337 7 7 8 2 4 -15 -4 -14 -12 -44 -18 -67 -5 -24 -13 -43 -17
-43 -5 0 -6 -12 -3 -26 4 -20 2 -25 -8 -19 -9 5 -10 2 -6 -13 4 -11 2 -23 -4
-27 -5 -3 -10 -11 -10 -18 0 -29 30 35 50 108 12 44 26 85 32 92 6 8 6 19 -1
32 -15 28 -14 38 3 16 12 -17 13 -17 20 9 12 49 133 290 197 391 233 374 590
680 989 850 47 20 96 41 110 47 14 6 31 12 38 14 7 1 28 11 46 22 19 11 72 32
118 46 229 69 217 65 173 64 -22 0 -67 -4 -100 -9z m-396 -143 c-2 -3 -56 -30
-119 -62 -135 -67 -245 -134 -353 -215 -89 -67 -111 -77 -52 -23 60 55 216
155 345 222 112 58 195 94 179 78z m-1187 -1258 c-7 -7 -12 -8 -12 -2 0 14 12
26 19 19 2 -3 -1 -11 -7 -17z"/>
<path d="M2672 4515 c4 -4 22 -10 40 -14 23 -5 34 -14 39 -31 l7 -25 1 27 c1
22 -4 29 -26 34 -16 3 -37 8 -48 11 -11 3 -17 2 -13 -2z"/>
<path d="M2775 4490 c3 -5 15 -10 25 -10 14 0 18 -5 13 -17 -5 -16 -4 -15 9 1
23 30 40 11 34 -38 l-5 -41 10 38 11 38 47 -7 c70 -10 44 4 -48 26 -94 23
-105 24 -96 10z"/>
<path d="M2700 4460 c0 -11 4 -20 9 -20 5 0 7 9 4 20 -3 11 -7 20 -9 20 -2 0
-4 -9 -4 -20z"/>
<path d="M2581 4443 c-1 -25 -11 -29 -29 -11 -8 8 -15 8 -26 -2 -9 -7 -23 -10
-31 -6 -9 3 -15 0 -15 -10 0 -12 -6 -15 -21 -11 -26 7 -69 -12 -69 -30 0 -7 5
-13 11 -13 6 0 9 -12 7 -27 -3 -26 0 -28 47 -35 27 -4 79 -16 115 -27 36 -11
95 -22 133 -25 37 -3 88 -14 114 -26 25 -11 58 -20 73 -20 33 0 132 -33 162
-54 12 -9 32 -16 43 -16 30 0 -113 66 -192 89 -37 11 -86 27 -109 35 -23 8
-65 18 -93 22 -51 7 -52 7 -49 38 2 17 8 30 13 29 6 -1 37 -4 70 -7 51 -5 131
-21 210 -41 11 -3 36 -7 54 -10 19 -2 49 -10 65 -18 110 -52 148 -67 156 -62
4 3 30 -11 56 -30 27 -19 58 -39 69 -44 69 -30 95 -45 198 -114 31 -21 57 -41
57 -45 0 -4 12 -15 28 -24 34 -21 162 -144 162 -157 0 -5 13 -25 30 -43 16
-18 33 -48 36 -68 3 -19 10 -50 14 -67 5 -18 6 -33 3 -33 -3 0 -23 16 -46 35
-22 19 -43 32 -46 29 -3 -3 8 -18 25 -32 31 -27 104 -123 104 -137 0 -5 17
-31 39 -59 53 -71 71 -100 76 -126 2 -12 15 -36 28 -54 37 -48 67 -111 72
-153 3 -21 10 -42 18 -48 7 -5 18 -21 24 -35 12 -25 12 -24 6 5 -4 17 -7 58
-7 93 0 40 -4 61 -11 58 -7 -2 -9 9 -7 30 5 39 22 46 22 10 0 -16 7 -27 20
-31 11 -3 23 -18 26 -33 3 -15 17 -50 30 -79 13 -28 24 -61 24 -73 0 -11 7
-37 15 -57 8 -19 15 -50 15 -68 0 -42 20 -58 75 -59 25 -1 45 -4 45 -8 0 -3 3
-14 6 -22 6 -15 -11 -16 -167 -14 l-173 3 -9 35 c-38 152 -128 366 -207 495
-89 145 -253 333 -376 430 -21 17 -65 52 -98 79 -34 26 -74 55 -91 63 -16 9
-32 19 -35 23 -11 15 -139 84 -225 120 -167 72 -340 117 -489 127 l-99 6 21
-21 c14 -14 43 -24 94 -31 210 -29 379 -81 563 -172 182 -89 303 -176 445
-319 135 -136 217 -247 299 -409 51 -101 111 -243 111 -265 0 -3 -17 -6 -38
-6 -36 0 -38 1 -61 63 -115 299 -355 593 -641 784 -187 125 -430 216 -650 243
-89 11 -155 12 -130 3 8 -3 22 -11 30 -18 8 -7 70 -22 136 -33 266 -47 507
-154 736 -329 31 -24 63 -43 71 -43 17 0 47 -32 47 -51 0 -8 14 -27 31 -44 40
-38 136 -157 176 -215 51 -76 103 -179 152 -301 44 -111 49 -118 119 -182 l74
-67 189 0 c179 0 191 -1 224 -22 19 -13 35 -29 35 -35 0 -19 -9 -16 -46 12
-32 25 -36 25 -219 25 l-186 0 -82 78 c-76 71 -85 84 -117 167 -44 112 -105
223 -186 340 -81 117 -174 219 -187 206 -5 -5 -17 -7 -26 -4 -9 3 9 -21 40
-53 152 -162 251 -326 323 -538 34 -101 42 -113 119 -195 l48 -51 218 0 c171
0 226 -3 254 -15 20 -8 38 -19 42 -25 3 -5 11 -10 17 -10 12 0 6 59 -19 188
-14 76 -33 110 -33 61 0 -18 -5 -20 -47 -17 l-48 3 -17 65 c-10 36 -22 86 -28
112 -5 26 -18 64 -30 85 -11 21 -20 47 -20 59 0 12 -7 27 -15 34 -8 7 -15 21
-15 31 0 10 -4 21 -10 24 -17 10 -11 25 13 35 21 8 21 9 -5 9 -26 1 -54 31
-41 45 3 3 1 6 -5 6 -18 0 -14 28 6 40 14 9 14 10 -6 5 -29 -8 -73 33 -76 70
0 14 -5 25 -11 25 -5 0 -21 18 -35 40 -13 22 -28 40 -32 40 -4 0 -8 6 -8 13 0
7 -9 19 -19 27 -11 7 -18 17 -15 21 2 4 -5 10 -16 14 -11 3 -20 12 -20 18 0 7
-16 30 -34 52 -104 121 -136 161 -136 168 0 4 -6 7 -14 7 -8 0 -21 6 -28 13
-11 10 -94 81 -145 122 -7 6 -19 15 -27 22 -8 7 -38 27 -68 45 -29 17 -55 35
-58 38 -9 11 -90 40 -90 33 0 -4 -13 7 -30 25 -16 18 -30 37 -30 43 0 9 -13
13 -43 10 -9 -1 -34 7 -55 17 -46 25 -74 36 -86 33 -5 -1 -5 6 -1 16 15 37 15
57 0 24 -12 -26 -18 -32 -27 -23 -7 7 -20 12 -30 12 -10 0 -18 7 -18 15 0 11
-8 13 -30 9 -22 -5 -31 -2 -36 11 -4 10 -9 13 -13 6 -5 -8 -13 -6 -27 5 -10 8
-13 12 -5 8 9 -5 12 -3 7 4 -5 9 -12 9 -26 0 -14 -9 -22 -9 -34 1 -8 7 -19 10
-24 7 -6 -3 -15 1 -22 9 -10 12 -16 13 -27 4 -10 -9 -18 -8 -31 4 -13 12 -21
14 -29 6 -8 -8 -13 -5 -18 11 -7 21 -7 21 -27 3 -19 -17 -20 -17 -33 0 -8 12
-15 14 -20 8 -12 -20 -33 -11 -43 17 -9 24 -10 25 -11 5z"/>
<path d="M2966 4418 c-8 -41 0 -49 9 -8 6 26 10 30 28 24 12 -4 25 -11 28 -17
4 -5 14 -7 23 -4 9 4 16 2 16 -3 0 -6 8 -10 18 -10 10 0 23 -5 30 -12 7 -7 12
-9 12 -5 0 4 17 -1 39 -12 21 -11 41 -17 45 -14 3 4 6 1 6 -5 0 -7 5 -12 10
-12 47 0 -71 57 -196 95 -64 19 -61 20 -68 -17z"/>
<path d="M1210 4430 c-8 -5 -10 -10 -5 -10 6 0 17 5 25 10 8 5 11 10 5 10 -5
0 -17 -5 -25 -10z"/>
<path d="M2920 4410 c0 -11 4 -20 9 -20 5 0 7 9 4 20 -3 11 -7 20 -9 20 -2 0
-4 -9 -4 -20z"/>
<path d="M1883 4398 c4 -24 1 -27 -18 -22 -15 4 -24 0 -28 -10 -10 -25 -35
-19 -52 12 l-16 27 5 -33 c5 -30 4 -33 -14 -27 -13 4 -22 1 -26 -9 -10 -25
-42 -19 -58 12 -8 15 -15 21 -16 14 0 -7 5 -22 10 -32 7 -13 7 -21 0 -25 -5
-3 -10 -1 -10 4 0 20 -28 11 -33 -10 -4 -16 -11 -20 -26 -16 -12 3 -22 -1 -25
-9 -7 -17 -43 -18 -49 -1 -3 6 -6 1 -6 -13 -1 -23 -2 -23 -36 13 -20 21 -33
42 -30 47 9 14 -9 12 -23 -2 -7 -7 -12 -9 -12 -6 0 4 -27 -9 -61 -28 -33 -18
-63 -34 -66 -34 -3 0 -46 -28 -96 -61 -364 -244 -640 -571 -799 -949 -17 -41
-31 -83 -30 -92 0 -10 -3 -18 -9 -18 -5 0 -9 -9 -9 -21 0 -11 -5 -29 -11 -41
-17 -31 -2 -34 25 -5 13 14 27 44 31 67 8 49 27 59 67 36 28 -17 30 -17 43 1
27 36 25 53 -4 53 -15 0 -32 5 -39 12 -6 6 -15 9 -18 5 -4 -3 10 -16 30 -28
44 -26 42 -30 -7 -22 -40 6 -45 20 -27 67 12 33 43 34 75 2 22 -22 24 -22 28
-5 6 22 -28 50 -49 42 -14 -5 -31 23 -21 33 3 3 24 -4 47 -16 35 -18 44 -19
51 -8 14 21 10 32 -5 18 -21 -16 -71 8 -71 35 0 27 32 31 64 7 l27 -19 26 37
c15 20 30 48 33 63 6 24 3 29 -29 42 -20 8 -36 20 -36 25 0 16 19 12 51 -12
35 -27 53 -19 80 33 10 18 23 40 29 47 9 10 3 17 -29 30 -22 9 -41 22 -41 29
0 24 18 21 50 -9 l34 -30 18 23 c10 13 23 30 29 37 9 10 6 17 -12 30 -13 9
-27 16 -31 15 -13 -4 -27 23 -18 36 6 11 15 7 41 -18 39 -35 42 -36 58 -17 10
12 9 14 -6 10 -26 -7 -76 37 -68 59 4 9 13 17 20 17 8 0 17 9 20 20 9 28 20
25 55 -12 17 -17 33 -28 37 -24 4 4 -7 18 -25 32 -37 29 -41 49 -13 64 16 8
23 5 40 -16 12 -15 21 -31 21 -37 0 -5 7 -4 15 3 18 15 4 37 -32 51 -15 5 -21
14 -17 24 9 22 17 19 47 -15 33 -36 37 -37 67 -5 13 14 19 25 13 25 -6 0 -13
-7 -17 -15 -9 -23 -42 -18 -65 11 -25 32 -16 64 15 52 4 -2 10 7 15 20 5 13
17 22 29 22 12 0 19 4 15 9 -3 5 4 12 14 16 11 3 23 15 26 26 13 40 75 5 75
-43 0 -15 3 -16 19 -6 18 11 18 13 3 35 -10 12 -22 23 -28 23 -20 0 -25 30 -7
37 9 4 18 2 21 -5 9 -29 44 -61 59 -55 14 5 13 8 -5 14 -11 4 -28 19 -38 34
-13 20 -14 28 -4 40 7 9 21 13 31 10 13 -4 19 -1 19 9 0 31 20 25 42 -14 23
-39 41 -50 53 -30 3 6 0 10 -8 10 -17 0 -47 42 -47 65 0 9 7 18 17 22 19 8 53
-30 53 -59 0 -17 3 -18 14 -8 12 9 12 17 4 35 -6 14 -14 22 -19 20 -12 -8 -20
11 -13 29 9 24 17 20 42 -24 27 -47 45 -50 96 -15 20 14 41 25 46 25 17 0 11
16 -15 44 -22 23 -35 66 -20 66 9 0 43 -38 38 -43 -2 -3 1 -15 7 -27 10 -19
17 -20 58 -14 26 3 54 10 63 15 9 4 25 6 37 3 31 -9 23 -42 -18 -67 -19 -11
-51 -33 -70 -48 -19 -15 -46 -30 -60 -34 -40 -12 -108 -55 -129 -81 -11 -14
-34 -29 -53 -36 -51 -17 -138 -86 -138 -109 0 -5 -18 -18 -40 -29 -53 -27 -51
-34 3 -13 51 19 69 32 62 44 -8 13 75 89 97 89 32 0 88 28 88 44 0 25 89 76
132 76 29 0 41 6 53 24 22 34 96 66 150 66 33 0 45 4 45 15 0 15 41 36 100 53
19 6 73 22 120 37 46 15 110 30 142 33 32 2 55 9 52 13 -3 5 -1 9 5 9 6 0 18
9 28 19 18 19 80 33 137 31 60 -2 13 14 -52 18 -76 4 -77 4 -152 -1 -30 -2
-67 0 -82 4 -19 5 -25 4 -22 -5 3 -9 -7 -12 -36 -11 -22 1 -43 5 -47 8 -3 4
-11 3 -17 -3 -14 -11 -28 -3 -45 25 -11 18 -12 18 -8 -7z m-457 -153 c8 -13
14 -32 12 -42 -5 -27 -40 -22 -57 8 -28 50 13 83 45 34z m-53 -41 c10 -20 15
-39 12 -42 -9 -9 -67 56 -60 68 12 19 30 9 48 -26z m-603 -534 c23 -43 -13
-53 -56 -17 -25 22 -25 24 -10 40 20 20 49 10 66 -23z m-64 -93 c10 -31 -11
-43 -41 -23 -32 21 -42 45 -25 56 18 11 58 -9 66 -33z m-42 -42 c11 -8 16 -18
13 -22 -4 -4 -13 -1 -19 5 -7 7 -20 12 -30 12 -11 0 -18 7 -18 20 0 22 11 19
54 -15z m-53 -73 c26 -21 21 -52 -9 -52 -25 0 -63 37 -56 55 8 20 37 19 65 -3z
m-11 -83 c0 -5 -10 -3 -23 6 -13 8 -27 12 -31 8 -8 -9 -27 18 -20 29 6 9 74
-31 74 -43z"/>
<path d="M1390 4236 c0 -2 8 -10 18 -17 15 -13 16 -12 3 4 -13 16 -21 21 -21
13z"/>
<path d="M730 3665 c7 -9 15 -13 17 -11 7 7 -7 26 -19 26 -6 0 -6 -6 2 -15z"/>
<path d="M665 3574 c9 -9 19 -13 23 -10 3 4 0 11 -8 16 -24 15 -33 11 -15 -6z"/>
<path d="M572 3448 c5 -15 28 -23 28 -10 0 5 -7 13 -16 16 -10 4 -14 1 -12 -6z"/>
<path d="M1990 4399 c0 -5 -4 -7 -10 -4 -5 3 -10 1 -10 -4 0 -14 17 -14 25 -1
4 6 11 7 17 4 7 -4 8 -2 4 4 -9 15 -26 16 -26 1z"/>
<path d="M1720 4391 c0 -10 19 -25 25 -20 1 2 -3 10 -11 17 -8 7 -14 8 -14 3z"/>
<path d="M3071 4364 c0 -11 3 -14 6 -6 3 7 2 16 -1 19 -3 4 -6 -2 -5 -13z"/>
<path d="M1622 4344 c10 -10 20 -15 24 -12 3 4 -5 12 -18 18 -22 12 -22 12 -6
-6z"/>
<path d="M3284 4290 c0 -22 4 -40 8 -40 5 0 8 5 8 11 0 6 7 17 15 26 12 12 13
18 4 29 -22 26 -36 16 -35 -26z"/>
<path d="M351 4224 c-7 -8 -11 -17 -9 -20 3 -2 13 5 23 16 10 11 14 20 9 20
-5 -1 -15 -8 -23 -16z"/>
<path d="M2610 4222 c0 -9 -79 -29 -130 -34 -14 -2 -25 -7 -24 -13 1 -14 32
-21 139 -35 184 -23 345 -67 520 -144 54 -24 82 -31 87 -23 5 8 11 7 22 -2 9
-7 14 -17 11 -21 -8 -12 113 -83 143 -84 17 -1 31 -11 41 -29 21 -37 98 -97
125 -97 26 0 46 -17 46 -39 1 -21 84 -111 102 -111 20 0 38 -21 38 -42 0 -10
26 -53 58 -96 142 -189 225 -365 297 -624 l15 -57 41 1 41 0 -7 37 c-9 46 -12
51 -36 51 -24 0 -48 51 -56 121 -4 35 -2 49 6 49 19 0 8 33 -12 36 -26 4 -48
25 -62 59 -25 60 -26 72 -9 90 22 22 9 46 -32 57 -19 5 -39 22 -57 50 -26 41
-38 96 -17 83 6 -3 10 0 10 7 0 19 -24 50 -35 47 -30 -9 -89 46 -115 108 -13
29 -29 46 -55 59 -37 17 -85 76 -85 104 0 23 -20 40 -47 40 -52 0 -124 59
-127 104 0 14 -3 26 -6 26 -3 1 -26 2 -51 3 -55 3 -109 40 -129 86 -11 29 -14
30 -59 24 -33 -4 -57 -1 -78 11 -37 18 -75 64 -67 78 4 6 -14 7 -49 3 -47 -6
-63 -3 -101 16 -25 12 -48 30 -51 40 -4 13 -15 17 -39 16 -19 -1 -31 -6 -28
-11 6 -11 -68 0 -102 16 -14 6 -23 15 -20 19 3 5 -7 14 -21 19 -32 12 -35 12
-35 2z"/>
<path d="M1945 4154 c-19 -30 -165 -50 -173 -24 -5 13 -22 13 -22 0 0 -13 -32
-45 -60 -60 -30 -16 -113 -23 -104 -9 4 8 0 7 -15 0 -11 -7 -21 -16 -21 -21 0
-14 -115 -78 -147 -82 -16 -2 -32 -11 -37 -23 -11 -25 -94 -86 -137 -100 -47
-16 -48 -33 -2 -32 24 0 48 9 66 24 16 13 32 23 37 23 4 0 15 15 24 34 18 37
32 46 59 37 24 -9 12 -22 -95 -101 -47 -36 -85 -67 -82 -69 2 -2 23 12 46 31
124 100 369 228 548 288 61 20 114 44 127 57 12 13 28 23 35 24 7 0 4 4 -7 9
-28 12 -29 12 -40 -6z"/>
<path d="M1256 4145 c4 -8 10 -15 15 -15 4 0 6 7 3 15 -4 8 -10 15 -15 15 -4
0 -6 -7 -3 -15z"/>
<path d="M1197 4113 c-2 -5 1 -20 7 -35 8 -19 16 -24 25 -19 11 7 10 13 -4 35
-19 28 -22 30 -28 19z"/>
<path d="M1160 4092 c0 -12 19 -26 26 -19 2 2 -2 10 -11 17 -9 8 -15 8 -15 2z"/>
<path d="M2496 4051 c12 -10 66 -25 144 -40 588 -108 1038 -467 1255 -1001 25
-64 39 -86 55 -88 11 -2 20 -1 20 2 0 15 -85 208 -117 265 -276 495 -791 837
-1317 875 -56 4 -57 4 -40 -13z"/>
<path d="M1770 4030 c-363 -127 -714 -427 -921 -785 -266 -463 -295 -1076 -73
-1562 43 -96 84 -166 91 -159 3 3 1 11 -5 19 -6 7 -20 35 -31 62 -11 28 -15
42 -8 32 6 -10 20 -28 29 -39 10 -12 18 -25 18 -30 0 -5 12 -26 26 -46 32 -45
31 -44 -38 98 -276 561 -235 1202 111 1726 188 285 498 526 826 644 50 18 106
39 125 46 l35 13 -50 -5 c-37 -4 -46 -3 -35 5 27 20 -10 12 -100 -19z"/>
<path d="M1077 4014 c6 -15 23 -19 23 -5 0 5 -7 11 -14 14 -10 4 -13 1 -9 -9z"/>
<path d="M1050 4004 c0 -3 8 -16 18 -29 13 -16 23 -21 33 -14 10 6 10 9 2 9
-7 0 -22 9 -33 20 -11 11 -20 17 -20 14z"/>
<path d="M1782 3966 c-183 -60 -391 -191 -563 -354 -366 -348 -544 -782 -526
-1286 10 -311 93 -575 261 -835 35 -54 71 -98 78 -98 8 1 35 -24 61 -55 26
-32 43 -58 38 -58 -8 0 -33 31 -83 104 -4 6 -10 7 -14 3 -7 -7 54 -83 146
-181 104 -111 302 -258 410 -305 30 -13 79 -35 108 -49 29 -13 76 -26 105 -28
l52 -4 -45 21 c-25 11 -70 30 -100 41 -30 12 -67 29 -82 39 -14 11 -54 35 -88
54 -166 94 -370 275 -485 431 -28 37 -42 50 -48 41 -6 -8 -7 -7 -4 4 3 9 -11
43 -30 75 -245 404 -304 918 -158 1369 161 497 551 890 1050 1061 45 15 61 24
43 24 -14 0 -32 2 -40 5 -7 2 -46 -6 -86 -19z m-798 -2485 c-5 -6 -33 31 -33
44 -1 6 8 -1 19 -15 10 -14 17 -27 14 -29z m46 -61 c0 -5 -2 -10 -4 -10 -3 0
-8 5 -11 10 -3 6 -1 10 4 10 6 0 11 -4 11 -10z"/>
<path d="M1022 3963 c9 -10 18 -25 21 -33 4 -12 6 -12 12 3 8 20 -10 47 -33
47 -14 0 -14 -2 0 -17z"/>
<path d="M990 3945 c7 -8 17 -15 22 -15 6 0 5 7 -2 15 -7 8 -17 15 -22 15 -6
0 -5 -7 2 -15z"/>
<path d="M2075 3926 c2 -17 4 -34 4 -38 1 -5 9 -8 19 -7 10 0 12 3 5 6 -9 3
-8 11 4 29 17 27 13 37 -17 39 -16 1 -19 -4 -15 -29z"/>
<path d="M2430 3950 c0 -5 5 -10 10 -10 6 0 10 -4 10 -10 0 -5 -9 -10 -20 -10
-14 0 -20 -7 -20 -22 0 -21 1 -21 13 -3 12 15 22 17 78 11 304 -32 603 -152
824 -330 57 -46 62 -48 68 -26 7 27 -21 53 -153 142 -215 145 -458 235 -685
253 -44 3 -90 8 -102 11 -13 2 -23 0 -23 -6z"/>
<path d="M1815 3916 c-187 -68 -323 -146 -481 -278 -312 -260 -510 -611 -570
-1011 -20 -137 -15 -416 11 -547 48 -244 149 -465 309 -675 34 -43 66 -86 72
-94 10 -13 14 -13 28 -2 15 12 12 18 -22 55 -20 22 -57 69 -81 104 -33 46 -47
59 -54 50 -7 -10 -8 -9 -4 3 3 9 -21 68 -53 132 -228 456 -237 959 -26 1413
67 142 164 287 265 399 25 27 39 44 29 37 -30 -23 -32 8 -3 38 20 21 32 27 44
21 11 -7 34 6 86 49 139 115 316 215 489 278 43 16 74 32 68 36 -5 3 -18 3
-29 0 -10 -3 -7 1 7 10 38 23 14 18 -85 -18z m-674 -2553 c13 -16 12 -17 -3
-4 -10 7 -18 15 -18 17 0 8 8 3 21 -13z"/>
<path d="M1890 3881 c-106 -35 -237 -92 -315 -139 -106 -63 -285 -209 -285
-232 0 -6 -7 -10 -15 -10 -17 0 -163 -171 -220 -260 -97 -149 -171 -327 -217
-520 -19 -84 -22 -122 -23 -320 0 -181 4 -242 18 -310 25 -118 71 -256 117
-356 42 -91 147 -256 199 -314 l32 -35 -25 40 c-38 58 -32 60 20 7 l46 -47
-54 75 c-148 207 -235 401 -285 632 -26 119 -25 467 1 588 51 237 143 442 282
627 53 71 64 90 44 78 -6 -4 -5 5 2 19 6 14 16 26 22 26 6 0 5 -5 -2 -12 -7
-7 -12 -17 -12 -22 0 -6 29 18 65 54 39 38 60 67 54 71 -16 9 7 49 29 50 50 4
63 9 113 46 75 55 159 104 259 152 49 24 95 54 108 71 13 17 33 30 45 31 12 0
40 9 62 19 56 26 35 23 -65 -9z m-830 -2295 c0 -6 -7 -1 -15 10 -8 10 -15 23
-15 28 0 6 7 1 15 -10 8 -10 15 -23 15 -28z m50 -76 c6 -11 8 -20 6 -20 -3 0
-10 9 -16 20 -6 11 -8 20 -6 20 3 0 10 -9 16 -20z"/>
<path d="M2459 3876 c9 -10 29 -16 57 -16 24 0 56 -5 71 -11 53 -21 68 -26
183 -58 225 -62 455 -193 620 -352 25 -24 58 -50 73 -56 15 -7 27 -21 27 -31
0 -10 21 -45 46 -78 65 -83 104 -146 148 -239 39 -82 89 -215 101 -272 6 -29
108 -155 144 -177 15 -9 419 -9 458 0 13 4 43 -5 74 -20 28 -15 54 -25 56 -23
8 9 -10 37 -24 37 -8 0 -31 11 -51 25 -36 25 -39 25 -257 25 l-220 0 -69 76
c-61 67 -73 87 -106 177 -163 447 -516 795 -952 938 -87 28 -204 51 -328 65
-59 6 -63 5 -51 -10z"/>
<path d="M875 3830 c10 -11 20 -18 23 -15 7 6 -18 35 -31 35 -5 0 -2 -9 8 -20z"/>
<path d="M2637 3803 c-2 -5 -2 -14 -1 -20 1 -7 2 -17 3 -23 0 -5 20 -14 44
-20 259 -67 478 -185 655 -354 35 -34 52 -45 52 -34 0 10 7 21 16 26 13 7 -1
24 -73 87 -172 152 -390 272 -582 319 -98 24 -110 26 -114 19z"/>
<path d="M820 3784 c0 -3 9 -17 19 -30 16 -20 20 -22 25 -8 4 10 -1 22 -11 30
-19 14 -33 18 -33 8z"/>
<path d="M1052 3774 c-12 -8 -29 -31 -37 -50 -8 -19 -24 -38 -37 -43 -29 -11
-118 -105 -118 -125 0 -9 -14 -26 -31 -38 -36 -27 -93 -103 -104 -138 -4 -14
-18 -36 -30 -50 -25 -28 -75 -122 -75 -142 0 -7 -16 -45 -35 -84 -19 -38 -39
-90 -45 -115 -5 -24 -21 -77 -35 -118 -14 -40 -25 -87 -25 -103 0 -17 -6 -56
-14 -87 -13 -51 -33 -294 -28 -331 1 -8 6 -69 11 -135 4 -67 13 -130 20 -142
6 -12 11 -39 11 -60 0 -49 23 -135 44 -164 9 -13 16 -34 16 -46 0 -31 39 -134
60 -158 10 -11 21 -36 25 -55 11 -53 56 -131 82 -141 13 -5 23 -16 23 -26 0
-35 60 -123 100 -148 22 -14 40 -33 40 -43 0 -9 5 -24 10 -32 8 -12 10 -9 10
11 0 19 -16 43 -54 81 -40 40 -58 67 -66 100 -11 43 -55 107 -68 99 -4 -2 -17
14 -30 35 -16 29 -21 48 -16 75 5 31 1 40 -26 65 -49 45 -63 80 -56 136 7 47
-6 94 -23 84 -9 -6 -36 40 -45 77 -4 18 -1 35 9 50 22 31 19 55 -10 81 -33 31
-46 114 -21 135 23 19 20 74 -4 96 -28 25 -28 105 0 130 20 19 29 95 11 95
-16 0 -21 32 -11 71 6 21 14 39 19 39 24 0 39 86 21 120 -11 21 5 80 26 93 20
12 50 100 36 105 -30 10 1 91 48 129 27 22 46 63 29 63 -5 0 -9 11 -9 24 0 28
37 96 51 96 23 0 59 50 59 82 0 34 44 108 65 108 22 0 65 49 65 74 0 32 39 78
94 110 29 17 46 35 51 53 3 16 16 38 27 51 25 26 21 28 -10 6z"/>
<path d="M1748 3756 c-42 -18 -100 -46 -128 -62 -84 -48 -199 -138 -200 -156
0 -19 -16 -31 -44 -33 -35 -3 -219 -220 -299 -352 -56 -94 -129 -268 -156
-376 -44 -172 -62 -383 -42 -497 6 -29 9 -36 10 -18 3 69 2 70 133 -55 28 -27
16 -63 -39 -116 -43 -40 -47 -42 -60 -25 -12 17 -13 17 -13 -3 0 -42 52 -198
101 -301 50 -108 162 -284 201 -318 24 -21 18 -7 -19 42 -27 36 -30 52 -6 33
15 -13 15 -12 2 8 -9 16 -16 19 -21 10 -4 -7 -8 -7 -9 -2 -3 33 -11 61 -23 74
-7 9 -16 24 -19 34 -4 10 -11 16 -16 12 -5 -3 -13 0 -17 6 -4 8 -3 9 4 5 17
-10 16 -8 -32 95 -25 52 -48 106 -51 121 -4 16 -10 26 -14 24 -3 -2 -7 6 -8
17 0 12 -7 44 -13 72 l-13 50 64 57 c57 52 68 58 104 56 l40 -1 -36 -4 c-24
-3 -46 -14 -65 -35 -27 -28 -27 -30 -6 -24 18 6 22 3 22 -13 0 -11 -5 -23 -11
-27 -6 -3 -17 -22 -25 -40 -16 -38 -28 -42 -44 -16 -9 14 -10 10 -6 -21 12
-92 183 -424 213 -413 7 3 10 -1 6 -10 -3 -10 0 -12 10 -9 18 7 70 -52 63 -71
-7 -18 4 -45 15 -38 19 11 8 66 -20 102 -76 96 -231 396 -231 446 0 8 26 39
57 70 l57 56 113 2 c62 0 118 1 123 2 6 1 10 -3 10 -8 0 -4 -53 -8 -118 -7
l-117 2 -30 -31 c-16 -16 -23 -30 -17 -30 7 0 12 4 12 9 0 5 13 14 30 19 42
15 225 -5 210 -23 -6 -7 -25 -16 -44 -19 -19 -4 -52 -25 -81 -51 -26 -25 -51
-45 -56 -45 -4 0 -11 -9 -14 -20 -7 -22 -31 -27 -38 -7 -4 8 -6 7 -6 -4 -2
-41 165 -329 191 -329 20 0 5 54 -31 107 -45 68 -101 177 -101 196 0 7 25 39
55 70 52 55 56 57 105 57 27 0 50 -4 50 -9 0 -5 -19 -8 -42 -7 -35 2 -48 -3
-80 -32 -43 -39 -44 -41 -23 -68 13 -18 14 -18 8 4 -13 51 74 87 108 46 6 -8
28 -14 49 -14 20 0 39 -3 42 -6 3 -3 -12 -23 -34 -44 -36 -35 -40 -43 -35 -74
5 -31 3 -36 -24 -48 -33 -15 -35 -20 -13 -42 14 -15 17 -14 35 8 11 14 28 28
39 31 24 8 26 28 5 45 -19 15 -20 40 -2 40 8 0 24 11 37 25 13 14 27 25 32 25
5 0 -5 -15 -21 -33 -37 -38 -37 -41 -10 -78 18 -26 26 -29 76 -29 34 0 66 7
84 17 26 15 29 23 28 63 -2 45 -2 45 -9 10 -4 -19 -8 -30 -9 -25 -2 6 -5 21
-7 35 -3 14 -9 27 -14 28 -16 6 -1 22 20 22 14 0 19 9 22 45 2 25 0 45 -4 45
-5 0 -8 -7 -8 -15 0 -19 -7 -19 -27 0 -12 13 -32 15 -103 11 -69 -4 -91 -2
-100 9 -18 21 20 27 143 23 l104 -3 -1 57 c-1 32 -4 58 -8 58 -7 0 -12 -24 -9
-42 1 -10 -13 -10 -23 0 -4 4 -50 5 -102 4 -84 -4 -95 -2 -101 15 -10 27 -43
47 -88 54 l-40 6 48 1 c34 2 47 6 47 17 0 8 7 15 15 15 18 0 20 31 3 48 -9 9
-8 12 5 12 13 0 15 5 8 23 -5 13 -7 35 -4 50 3 16 1 27 -5 27 -7 0 -5 11 4 28
7 15 14 33 14 40 0 6 5 12 12 12 6 0 3 6 -7 14 -18 13 -18 14 3 25 11 6 31 9
44 7 13 -3 58 -5 102 -5 75 -1 78 -2 73 -22 -4 -15 -3 -19 5 -11 6 6 7 23 3
41 -5 23 -13 31 -28 32 -20 1 -20 2 3 8 l25 7 3 234 c4 261 0 298 -26 296 -10
0 -16 6 -16 17 2 14 -6 17 -41 17 -42 0 -100 -21 -89 -33 3 -3 -12 -31 -34
-64 -48 -70 -92 -156 -122 -241 l-23 -63 34 -37 c19 -20 37 -38 42 -40 4 -2
12 -13 18 -25 6 -12 -16 5 -48 38 -57 58 -59 61 -50 95 14 53 83 197 127 266
22 33 40 65 40 70 0 5 -27 9 -59 9 -33 0 -58 2 -57 5 1 3 -8 15 -21 27 l-23
23 -30 -48 c-82 -130 -146 -291 -176 -446 l-18 -89 77 -74 77 -74 68 1 c90 2
98 1 86 -8 -5 -4 -43 -6 -85 -4 l-76 3 -79 73 -78 73 13 79 c20 124 67 258
136 391 41 79 61 129 58 143 -3 11 -1 26 3 33 5 7 0 2 -12 -11 -38 -43 -113
-176 -148 -262 -49 -119 -86 -261 -93 -357 -5 -73 -4 -83 11 -83 9 0 16 8 16
18 0 12 17 0 55 -38 59 -60 71 -83 28 -55 l-27 18 24 -31 c21 -26 33 -31 80
-34 l55 -4 -62 -2 c-43 -1 -63 2 -63 10 0 6 -3 8 -6 5 -4 -4 -1 -13 6 -22 10
-13 9 -15 -8 -15 -28 0 -132 87 -132 111 0 23 8 24 32 2 11 -10 18 -12 18 -4
0 6 -7 14 -15 17 -32 13 -34 64 -9 202 27 151 115 375 186 475 12 16 34 55 49
86 l29 56 -26 -30 c-43 -50 -129 -186 -162 -255 -69 -146 -122 -361 -122 -492
l0 -74 67 -60 c62 -55 71 -59 127 -65 l61 -6 -64 -1 -64 -2 -73 63 -74 62 6
80 c21 286 132 575 301 784 15 19 23 32 17 28 -19 -11 -23 50 -5 70 11 12 9
11 -8 -2 -24 -21 -61 -82 -42 -71 26 16 8 -30 -31 -80 -47 -60 -63 -58 -25 3
59 95 23 60 -47 -47 -128 -193 -209 -443 -222 -688 l-6 -107 74 -73 75 -73
171 3 c95 2 171 -1 169 -5 -1 -5 -81 -8 -177 -8 l-175 2 -72 72 -73 71 0 86
c1 333 152 698 394 948 139 144 282 249 458 333 31 15 48 30 51 46 2 12 4 23
3 23 0 0 -36 -15 -78 -34z m-432 -763 c-52 -90 -110 -234 -131 -328 l-16 -65
58 -70 58 -70 63 3 c34 2 62 -1 62 -5 0 -4 -29 -8 -64 -8 l-64 0 -63 71 -63
71 23 91 c12 51 37 130 56 176 36 88 113 226 122 218 2 -3 -16 -41 -41 -84z
m85 14 c-61 -89 -151 -307 -151 -365 0 -23 74 -110 105 -123 20 -8 20 -8 -1
-8 -22 -1 -124 99 -124 122 0 24 60 197 86 250 56 111 96 177 105 171 5 -3 -4
-24 -20 -47z m173 -63 c-1 -103 -12 -325 -16 -329 -8 -9 -103 -13 -122 -6 -12
5 -36 24 -54 42 -39 39 -38 55 5 153 49 112 134 223 167 221 20 -2 21 -7 20
-81z m-240 -334 c35 -49 35 -50 13 -50 -40 0 -93 70 -70 93 13 13 21 7 57 -43z
m193 -46 c-3 -3 -12 -4 -19 -1 -8 3 -5 6 6 6 11 1 17 -2 13 -5z m130 0 c-3 -3
-12 -4 -19 -1 -8 3 -5 6 6 6 11 1 17 -2 13 -5z m-371 -43 c-4 -5 -1 -12 4 -14
6 -3 5 -4 -2 -3 -15 3 -23 26 -8 26 6 0 9 -4 6 -9z m374 -31 c0 -5 -5 -10 -11
-10 -5 0 -7 5 -4 10 3 6 8 10 11 10 2 0 4 -4 4 -10z m-660 -152 c0 -12 -7 -10
-24 8 -9 8 -16 23 -16 32 0 13 5 11 20 -8 11 -14 20 -28 20 -32z m410 -8 c0
-5 -4 -10 -9 -10 -6 0 -13 5 -16 10 -3 6 1 10 9 10 9 0 16 -4 16 -10z m-337
-47 c27 -22 27 -23 7 -23 -22 0 -82 54 -72 65 5 5 13 0 65 -42z m230 -10 c-7
-2 -19 -2 -25 0 -7 3 -2 5 12 5 14 0 19 -2 13 -5z m107 -3 c0 -5 -7 -10 -15
-10 -8 0 -15 5 -15 10 0 6 7 10 15 10 8 0 15 -4 15 -10z m-117 -117 c-7 -2
-19 -2 -25 0 -7 3 -2 5 12 5 14 0 19 -2 13 -5z m367 -223 c0 -5 -2 -10 -4 -10
-3 0 -8 5 -11 10 -3 6 -1 10 4 10 6 0 11 -4 11 -10z m-103 -56 c-3 -3 -12 -4
-19 -1 -8 3 -5 6 6 6 11 1 17 -2 13 -5z m46 -1 c-7 -2 -19 -2 -25 0 -7 3 -2 5
12 5 14 0 19 -2 13 -5z m5 -85 c3 -16 -5 -18 -56 -18 -42 0 -61 4 -65 14 -9
22 4 27 63 24 43 -2 56 -7 58 -20z"/>
<path d="M2218 3783 c-50 -6 -58 -33 -58 -204 l0 -139 75 0 75 0 -5 95 c-2 53
-5 132 -6 175 -2 89 6 82 -81 73z"/>
<path d="M790 3760 c0 -5 9 -14 20 -20 11 -6 20 -7 20 -3 0 5 -9 14 -20 21
-11 7 -20 8 -20 2z"/>
<path d="M1125 3729 c-24 -22 -48 -38 -53 -35 -11 7 -48 -31 -39 -40 4 -4 13
-1 21 5 8 7 19 10 25 7 11 -7 63 35 92 75 29 42 6 36 -46 -12z"/>
<path d="M1189 3713 l-24 -28 28 24 c25 23 32 31 24 31 -2 0 -14 -12 -28 -27z"/>
<path d="M2640 3721 c0 -6 19 -15 43 -21 304 -77 560 -243 769 -500 55 -67 54
-44 -2 30 -110 149 -313 313 -488 396 -127 60 -322 118 -322 95z"/>
<path d="M3710 3726 c0 -2 8 -10 18 -17 15 -13 16 -12 3 4 -13 16 -21 21 -21
13z"/>
<path d="M1742 3690 c-106 -49 -311 -193 -361 -254 -13 -15 -10 -17 30 -15 57
4 129 59 129 100 0 15 7 29 16 33 10 4 13 2 8 -7 -5 -8 -2 -8 9 2 9 7 24 11
32 7 9 -3 33 5 53 18 21 13 65 37 99 54 51 26 61 36 65 62 6 37 1 37 -80 0z"/>
<path d="M2630 3672 c0 -16 11 -23 53 -32 132 -31 319 -118 445 -207 72 -52
221 -194 267 -257 28 -36 30 -37 38 -17 8 16 4 29 -19 58 -73 97 -215 225
-340 305 -106 68 -304 149 -396 162 -43 7 -48 5 -48 -12z"/>
<path d="M1121 3651 c-8 -9 -33 -36 -55 -61 -30 -33 -25 -30 19 12 32 32 57
59 55 62 -3 2 -11 -3 -19 -13z"/>
<path d="M1733 3600 c-69 -36 -120 -76 -110 -87 2 -2 42 19 88 45 46 27 92 53
103 59 11 6 14 13 8 17 -6 3 -46 -12 -89 -34z"/>
<path d="M979 3580 c-23 -28 -45 -48 -47 -45 -8 8 -42 -27 -42 -43 0 -10 4
-12 13 -5 6 6 23 13 37 17 25 6 72 64 85 105 10 32 0 26 -46 -29z"/>
<path d="M2632 3614 c2 -11 33 -25 93 -43 360 -107 650 -371 796 -723 35 -84
76 -246 85 -333 6 -56 10 -64 69 -129 l63 -69 193 6 c105 3 196 10 200 14 5 5
5 14 1 20 -6 9 -60 14 -186 16 l-179 3 -68 72 c-62 64 -69 76 -69 111 0 98
-60 287 -135 429 -125 234 -326 429 -559 542 -172 83 -312 121 -304 84z m1048
-1196 c0 -17 -22 -7 -27 12 -3 11 -9 17 -14 14 -5 -3 -9 3 -9 12 0 15 4 14 25
-6 14 -13 25 -27 25 -32z"/>
<path d="M1745 3561 c-79 -43 -201 -126 -212 -144 -4 -7 -1 -7 10 1 9 8 27 12
40 10 14 -1 48 13 88 38 35 23 83 52 106 64 26 14 43 31 46 46 2 13 1 24 -2
24 -3 0 -37 -18 -76 -39z"/>
<path d="M4142 3575 c6 -14 15 -25 20 -25 4 0 8 -5 8 -11 0 -7 7 -17 15 -23 9
-6 17 -21 18 -33 0 -13 7 -25 14 -27 7 -3 13 -14 13 -25 0 -11 6 -24 13 -28
15 -10 37 -49 43 -76 2 -11 7 -23 12 -26 5 -3 12 -15 15 -25 4 -10 10 -16 13
-13 8 8 -69 166 -108 224 -15 23 -28 44 -28 48 0 10 -43 65 -52 65 -4 0 -2
-11 4 -25z"/>
<path d="M2630 3556 c0 -21 10 -27 94 -54 52 -17 116 -40 142 -52 224 -101
432 -298 542 -515 81 -160 115 -277 132 -460 6 -58 16 -105 23 -113 11 -11 13
-8 9 20 l-5 33 24 -20 c13 -11 32 -30 42 -43 10 -12 25 -28 32 -36 17 -16 0
-37 -23 -29 -10 4 -13 1 -10 -8 4 -12 59 -14 337 -13 235 1 335 4 344 13 6 6
21 11 34 11 25 0 30 -2 111 -43 63 -33 62 -33 61 -4 0 17 -13 28 -57 49 -54
26 -63 27 -167 23 -60 -3 -214 -7 -341 -9 l-230 -5 -67 67 c-61 61 -67 71 -67
108 0 113 -58 330 -122 459 -48 94 -149 233 -230 315 -137 138 -318 248 -496
304 -103 32 -112 32 -112 2z"/>
<path d="M1004 3518 l-19 -23 23 19 c12 11 22 21 22 23 0 8 -8 2 -26 -19z"/>
<path d="M1729 3486 c-41 -24 -82 -52 -90 -63 -13 -16 -12 -17 2 -5 9 6 27 11
40 10 35 -2 139 59 139 83 0 10 -3 19 -8 19 -4 0 -41 -20 -83 -44z"/>
<path d="M2632 3463 l3 -48 84 -7 c239 -20 417 -133 515 -326 34 -68 56 -161
56 -243 0 -86 -37 -161 -124 -256 l-64 -69 72 -44 c136 -84 223 -196 246 -319
46 -244 -41 -448 -263 -617 -91 -68 -231 -129 -320 -138 -15 -1 -30 -6 -35
-11 -4 -4 4 -4 18 -1 l25 7 -25 -15 c-24 -15 -143 -56 -161 -56 -5 0 -9 5 -9
10 0 6 12 10 28 11 15 0 47 9 72 19 l45 19 -50 -6 c-27 -3 -57 -6 -65 -7 -38
-4 -40 -14 -40 -167 0 -171 -9 -160 105 -130 301 80 557 264 764 551 33 47
100 127 148 178 l88 92 102 10 c57 5 201 10 322 10 186 1 224 -1 251 -15 21
-11 36 -13 42 -7 13 13 -75 54 -117 55 -16 1 -162 -3 -323 -8 l-293 -8 -86
-94 c-48 -51 -97 -111 -109 -133 -70 -124 -217 -286 -344 -382 -41 -31 -86
-68 -100 -82 -14 -13 -38 -28 -55 -32 -16 -4 -55 -19 -86 -35 -58 -29 -259
-99 -284 -99 -33 0 -12 18 27 24 60 10 181 53 260 92 51 26 65 37 62 51 -6 22
48 47 64 31 12 -12 45 9 132 81 104 86 202 196 275 306 64 95 189 249 229 280
7 6 71 12 142 14 71 1 212 6 314 10 158 6 193 5 242 -10 53 -16 68 -15 68 1 0
4 -31 21 -68 39 l-69 31 -284 0 c-234 -1 -287 -3 -303 -15 -11 -8 -27 -13 -36
-10 -22 7 -189 -182 -255 -289 -156 -254 -411 -453 -705 -549 -41 -14 -83 -28
-92 -32 -13 -5 -18 -2 -18 9 0 9 8 16 19 16 39 0 187 53 276 98 122 62 231
139 318 226 95 95 132 141 201 254 79 129 212 282 246 282 14 0 34 7 44 15 16
12 70 15 308 15 285 0 289 0 350 -25 71 -29 78 -30 78 -11 0 8 -23 26 -52 40
l-52 26 -302 0 c-256 0 -303 -2 -314 -15 -8 -10 -30 -15 -64 -15 -51 0 -53 -1
-122 -73 -42 -42 -86 -101 -108 -142 -67 -125 -128 -208 -226 -306 -148 -148
-302 -245 -493 -308 -106 -36 -107 -36 -107 -17 0 9 11 14 33 14 45 0 198 59
289 111 101 58 179 117 267 204 90 89 147 167 214 296 36 68 73 121 121 171
l68 72 47 -6 c40 -5 51 -3 66 14 17 19 30 20 330 20 295 0 315 -1 360 -21 25
-11 49 -18 52 -15 3 3 8 36 10 73 l5 68 -51 25 c-39 18 -54 21 -63 12 -15 -15
-85 -16 -90 -1 -5 15 -566 26 -593 12 -11 -6 -36 -8 -55 -6 -29 4 -43 16 -82
70 -37 50 -48 73 -48 102 0 201 -87 468 -210 639 -144 204 -372 375 -589 442
-97 31 -103 29 -99 -27z m784 -722 c13 -35 21 -68 18 -73 -5 -8 -164 -12 -164
-4 0 2 7 21 16 42 19 43 24 164 11 254 l-7 55 51 -105 c28 -58 62 -134 75
-169z m41 -107 c28 -8 39 -35 19 -50 -20 -14 -20 -30 -1 -38 15 -5 22 -46 8
-46 -5 0 -15 -4 -22 -9 -12 -8 -11 -13 9 -29 48 -38 0 -63 -105 -53 -21 1 -47
29 -40 41 3 5 -3 11 -13 15 -16 7 -15 8 3 15 17 7 15 9 -12 9 -17 1 -38 4 -47
7 -23 9 -19 39 7 53 l22 11 -22 -6 c-13 -3 -23 -1 -23 5 0 6 5 11 12 11 6 0 4
6 -6 13 -28 21 -10 45 37 50 74 6 151 7 174 1z m-277 -120 c0 -8 -5 -12 -10
-9 -6 4 -8 11 -5 16 9 14 15 11 15 -7z m244 -141 c8 -19 -17 -48 -33 -39 -12
8 -15 39 -4 49 12 12 31 7 37 -10z m124 -84 l68 -67 107 -4 c92 -3 109 -6 121
-23 28 -38 9 -75 -37 -75 -18 0 -43 -7 -56 -17 -13 -9 -45 -20 -70 -25 -69
-13 -173 -95 -210 -165 l-20 -38 -1 90 c0 94 -21 240 -39 274 -15 28 -14 61 3
61 8 0 19 14 25 31 6 19 16 29 26 27 8 -2 46 -33 83 -69z m743 -85 c10 -13 26
-15 69 -11 64 5 90 -7 90 -44 0 -42 -11 -50 -55 -38 -22 6 -67 9 -100 6 -33
-3 -78 -3 -99 1 -33 6 -40 11 -41 32 -1 14 0 31 3 38 12 32 110 43 133 16z
m-478 -221 c-7 -2 -21 -2 -30 0 -10 3 -4 5 12 5 17 0 24 -2 18 -5z m-846 -613
c-14 -11 -28 -20 -32 -20 -7 0 -54 -20 -102 -43 -13 -6 -26 -7 -30 -4 -3 4 1
7 11 7 9 0 19 6 22 14 3 8 20 20 37 26 18 7 48 18 67 26 49 19 57 17 27 -6z
m-287 -104 c0 -3 -4 -8 -10 -11 -5 -3 -10 -1 -10 4 0 6 5 11 10 11 6 0 10 -2
10 -4z"/>
<path d="M1528 3464 c-23 -20 -45 -38 -46 -39 -2 -2 7 -1 20 2 12 4 43 21 67
40 34 26 39 33 23 33 -11 0 -40 -16 -64 -36z"/>
<path d="M948 3452 c-19 -21 -41 -49 -48 -62 -18 -34 -40 -55 -40 -39 0 7 6
20 14 28 17 21 29 81 15 81 -5 0 -24 -22 -41 -50 -17 -27 -37 -50 -43 -50 -21
0 -44 -44 -33 -63 5 -10 5 -17 0 -17 -5 0 -18 -19 -28 -42 -10 -23 -32 -55
-47 -71 -19 -20 -27 -37 -25 -55 3 -30 -40 -152 -54 -152 -14 0 -27 -44 -17
-56 11 -14 -17 -132 -37 -155 -8 -8 -14 -26 -13 -40 l0 -24 11 23 c6 12 17 22
25 22 8 0 12 -4 9 -9 -8 -12 4 -42 13 -37 4 3 3 -18 -2 -47 -5 -29 -10 -164
-12 -302 -2 -199 0 -254 11 -272 8 -12 14 -31 14 -43 0 -11 4 -20 9 -20 4 0
11 -27 14 -60 3 -34 9 -66 14 -73 6 -7 20 -39 33 -72 27 -69 88 -195 95 -195
5 0 -9 40 -29 78 -7 15 -28 68 -44 119 -180 537 -121 1054 177 1548 20 33 38
62 41 65 12 11 62 80 58 80 -3 0 -21 -17 -40 -38z m-118 -156 c0 -14 -20 -45
-20 -31 0 6 -4 4 -9 -3 -13 -21 -21 7 -10 35 8 23 39 22 39 -1z m-117 -204
c-6 -24 -23 -30 -23 -9 0 13 21 39 26 34 2 -2 1 -13 -3 -25z m-71 -196 c4 -17
1 -23 -9 -19 -7 3 -13 16 -13 30 0 30 16 22 22 -11z m-5 -108 c-6 -32 -15 -58
-20 -58 -6 0 -6 16 -2 38 4 20 8 52 8 70 0 26 3 30 13 20 9 -10 9 -27 1 -70z
m-17 -78 c0 -5 -4 -10 -10 -10 -5 0 -10 5 -10 10 0 6 5 10 10 10 6 0 10 -4 10
-10z"/>
<path d="M1772 3449 c-29 -17 -51 -34 -48 -37 3 -2 11 0 18 6 7 5 26 12 42 14
19 2 32 11 37 26 5 12 7 22 6 22 -1 0 -26 -14 -55 -31z"/>
<path d="M526 3346 c21 -15 30 -14 19 3 -3 6 -14 11 -23 11 -13 0 -13 -2 4
-14z"/>
<path d="M3442 3303 c-22 -4 -21 -6 19 -51 102 -116 196 -307 255 -514 26 -93
30 -99 93 -162 l66 -66 118 7 c106 5 117 8 117 25 0 17 -8 19 -91 17 l-91 -2
-73 79 c-59 63 -77 90 -90 134 -32 110 -86 238 -138 326 -84 143 -138 216
-155 213 -4 -1 -17 -4 -30 -6z m336 -669 c-4 -3 -12 5 -18 18 -12 22 -12 22 6
6 10 -10 15 -20 12 -24z"/>
<path d="M470 3251 c0 -12 28 -22 35 -12 3 5 -2 12 -11 15 -21 8 -24 8 -24 -3z"/>
<path d="M4330 3242 c0 -6 9 -29 20 -50 11 -22 22 -48 24 -58 6 -28 35 -91 36
-76 0 7 -14 50 -31 95 -31 80 -49 113 -49 89z"/>
<path d="M420 3154 c0 -2 9 -8 20 -14 11 -6 20 -7 20 -2 0 6 -9 12 -20 15 -11
3 -20 3 -20 1z"/>
<path d="M2488 3143 c7 -3 16 -2 19 1 4 3 -2 6 -13 5 -11 0 -14 -3 -6 -6z"/>
<path d="M404 3122 c4 -7 13 -12 20 -12 7 0 21 -7 32 -16 18 -15 18 -15 -9 -9
-41 9 -53 -5 -21 -24 28 -17 29 -17 46 16 23 42 23 40 -9 40 -16 0 -37 3 -47
8 -14 6 -17 5 -12 -3z"/>
<path d="M3446 3107 c3 -10 9 -15 12 -12 3 3 0 11 -7 18 -10 9 -11 8 -5 -6z"/>
<path d="M3520 3117 c0 -4 27 -62 59 -129 59 -123 102 -248 119 -345 7 -42 20
-64 68 -120 l59 -69 296 4 296 4 52 -25 51 -26 0 26 c0 15 -3 24 -6 20 -4 -3
-34 8 -67 24 -58 30 -64 31 -146 24 -47 -4 -90 -10 -96 -15 -22 -16 -73 -19
-85 -5 -9 11 -40 14 -135 13 l-123 -2 -70 63 c-69 61 -71 64 -87 139 -23 103
-58 198 -112 307 -40 81 -73 131 -73 112z"/>
<path d="M3492 3090 c2 -8 -3 -14 -9 -12 -18 3 -17 0 28 -85 56 -104 104 -241
129 -364 21 -100 22 -102 82 -170 l62 -69 168 0 c141 0 170 2 174 15 7 16 79
22 88 6 10 -15 67 -19 73 -4 7 17 64 17 100 -1 15 -8 52 -24 81 -35 48 -18 52
-18 52 -3 0 11 -22 27 -63 44 l-62 28 -290 0 -290 -1 -60 66 c-57 62 -62 70
-78 149 -23 115 -62 225 -112 326 -45 88 -78 138 -73 110z"/>
<path d="M2420 3081 l65 -6 -80 -6 c-44 -4 -117 -6 -162 -5 l-83 2 0 -61 c0
-33 -3 -140 -7 -237 l-6 -178 186 0 c144 0 197 4 234 16 72 24 129 71 159 132
23 46 26 61 22 121 -11 151 -123 233 -312 229 l-81 -1 65 -6z"/>
<path d="M405 3040 c3 -5 8 -10 11 -10 2 0 4 5 4 10 0 6 -5 10 -11 10 -5 0 -7
-4 -4 -10z"/>
<path d="M450 3022 c0 -7 -7 -12 -15 -12 -9 0 -12 -6 -9 -15 4 -8 10 -15 14
-15 9 0 21 42 15 49 -3 2 -5 -1 -5 -7z"/>
<path d="M322 3004 c-7 -8 -10 -19 -7 -25 4 -5 2 -15 -3 -22 -5 -7 -10 -19
-10 -27 0 -8 -4 -26 -7 -40 -13 -47 23 27 39 81 15 50 11 60 -12 33z"/>
<path d="M4420 2976 c0 -1 5 -17 11 -35 15 -43 30 -40 16 4 -6 19 -14 35 -19
35 -4 0 -8 -2 -8 -4z"/>
<path d="M410 2955 c-19 -11 -21 -14 -7 -15 9 0 17 -5 17 -11 0 -7 -10 -9 -25
-7 -30 6 -32 -3 -5 -27 19 -17 20 -17 30 11 5 16 15 37 20 47 12 20 4 21 -30
2z"/>
<path d="M4445 2890 c3 -5 8 -10 11 -10 2 0 4 5 4 10 0 6 -5 10 -11 10 -5 0
-7 -4 -4 -10z"/>
<path d="M226 2861 c-4 -5 -8 -31 -11 -58 -4 -45 -4 -46 5 -13 21 72 23 99 6
71z"/>
<path d="M380 2855 c-14 -8 -19 -14 -12 -15 6 0 12 -6 12 -14 0 -9 -9 -12 -27
-9 l-28 5 30 -26 30 -26 -24 -20 c-16 -14 -19 -20 -8 -20 8 0 17 -5 19 -11 2
-6 10 25 19 70 8 45 15 81 14 81 0 -1 -11 -7 -25 -15z"/>
<path d="M4197 2849 c4 -13 8 -18 11 -10 2 7 -1 18 -6 23 -8 8 -9 4 -5 -13z"/>
<path d="M276 2813 c-3 -25 -4 -49 -1 -51 3 -3 5 4 5 16 0 12 5 22 10 22 6 0
10 14 10 30 0 47 -17 35 -24 -17z"/>
<path d="M4729 2783 c-1 -32 -3 -179 -4 -328 -3 -356 -28 -524 -122 -810 -33
-100 -54 -152 -123 -300 -47 -99 -155 -271 -247 -392 -51 -68 -93 -132 -93
-143 0 -10 9 -21 19 -25 22 -7 43 -36 60 -85 13 -37 57 -90 77 -90 6 0 19 -11
28 -25 9 -14 25 -25 36 -25 14 0 20 -7 20 -21 0 -14 -5 -19 -14 -16 -15 6 -66
-51 -66 -72 0 -6 -7 -11 -16 -11 -8 0 -13 -4 -10 -9 3 -5 -21 -12 -54 -15 -33
-4 -60 -11 -60 -16 0 -6 8 -10 18 -11 9 0 4 -5 -13 -10 -45 -15 -324 7 -357
27 -5 3 -6 14 -3 25 6 19 5 20 -50 23 -36 2 -36 -5 -1 -41 30 -31 43 -37 91
-41 31 -3 52 -7 47 -11 -6 -3 36 -5 91 -3 56 1 161 -1 232 -6 l130 -8 -215
-12 c-302 -17 -361 -22 -354 -33 3 -5 -58 -10 -148 -11 -134 -2 -143 -2 -68
-8 47 -3 83 -7 80 -9 -3 -1 -61 -5 -130 -8 -69 -3 -127 -7 -129 -9 -2 -2 58
-4 135 -5 143 0 235 -16 119 -20 -54 -1 -56 -2 -25 -9 20 -4 -48 -8 -158 -7
-106 0 -195 -3 -199 -7 -3 -3 92 -6 213 -6 145 0 214 -4 204 -10 -8 -5 -33
-10 -55 -10 -30 0 -36 -3 -25 -10 10 -6 -71 -10 -240 -11 -293 -2 -241 -14 99
-22 112 -3 206 -8 209 -11 3 -3 -12 -6 -34 -6 -21 -1 -102 -3 -179 -4 -77 -2
-216 -5 -310 -7 -130 -3 -91 -5 165 -9 l335 -5 -397 -3 c-251 -1 -399 -6 -403
-12 -6 -9 517 -18 740 -13 l70 1 -65 -15 c-40 -9 -147 -18 -275 -22 l-210 -7
212 -2 c116 -1 220 -5 230 -8 15 -5 16 -4 3 6 -12 9 -8 11 20 6 21 -4 30 -3
22 3 -21 13 54 20 118 10 82 -11 248 -11 230 1 -11 7 -8 10 15 10 17 0 58 7
90 15 40 11 61 12 63 5 2 -5 12 -10 23 -10 21 0 26 -26 7 -33 -44 -15 40 -22
308 -25 l304 -3 0 1421 c0 781 -3 1420 -5 1420 -3 0 -6 -26 -6 -57z m-260
-2312 c8 -5 -5 -7 -35 -4 -27 3 -51 7 -53 9 -9 8 75 3 88 -5z m-496 -178 c-7
-2 -19 -2 -25 0 -7 3 -2 5 12 5 14 0 19 -2 13 -5z m92 -43 c3 -6 -1 -7 -9 -4
-18 7 -21 14 -7 14 6 0 13 -4 16 -10z m-292 -17 c-7 -2 -19 -2 -25 0 -7 3 -2
5 12 5 14 0 19 -2 13 -5z m204 -59 c-3 -3 -12 -4 -19 -1 -8 3 -5 6 6 6 11 1
17 -2 13 -5z m46 -21 c-7 -2 -19 -2 -25 0 -7 3 -2 5 12 5 14 0 19 -2 13 -5z
m102 -23 c-3 -5 -27 -10 -53 -9 -35 0 -42 3 -27 9 28 12 88 12 80 0z m-112
-17 c-7 -2 -19 -2 -25 0 -7 3 -2 5 12 5 14 0 19 -2 13 -5z m-256 -20 c-20 -2
-52 -2 -70 0 -17 2 0 4 38 4 39 0 53 -2 32 -4z m351 0 c-10 -2 -28 -2 -40 0
-13 2 -5 4 17 4 22 1 32 -1 23 -4z m-115 -20 c-7 -2 -19 -2 -25 0 -7 3 -2 5
12 5 14 0 19 -2 13 -5z m-245 -10 c-15 -2 -42 -2 -60 0 -18 2 -6 4 27 4 33 0
48 -2 33 -4z"/>
<path d="M197 2713 c-2 -21 0 -42 4 -47 5 -6 9 10 9 37 0 57 -6 61 -13 10z"/>
<path d="M261 2737 c-6 -8 -9 -16 -6 -18 2 -3 1 -29 -4 -57 -4 -29 -4 -55 0
-58 5 -3 9 6 9 20 0 14 3 26 8 26 4 0 8 23 9 50 3 54 1 57 -16 37z"/>
<path d="M310 2700 c0 -5 11 -12 25 -16 36 -9 31 -24 -7 -24 l-33 0 30 -18 30
-19 8 30 c5 16 6 36 3 43 -6 16 -56 19 -56 4z"/>
<path d="M555 2600 c-4 -33 -11 -62 -16 -65 -4 -3 -6 -49 -2 -101 4 -68 2
-101 -7 -118 -9 -18 -9 -29 -1 -42 10 -18 10 -17 11 4 0 12 5 22 10 22 14 0
13 110 -2 165 -10 37 -10 48 1 54 14 9 32 129 20 136 -4 3 -10 -22 -14 -55z"/>
<path d="M335 2591 c-19 -8 -19 -8 3 -20 19 -10 22 -9 22 9 0 11 -1 20 -2 19
-2 0 -12 -4 -23 -8z"/>
<path d="M240 2565 c0 -14 4 -25 9 -25 5 0 9 11 9 25 0 14 -4 25 -9 25 -5 0
-9 -11 -9 -25z"/>
<path d="M2096 2562 c-3 -6 -1 -14 5 -17 14 -9 20 -2 10 14 -6 8 -11 9 -15 3z"/>
<path d="M4206 2545 c5 -12 26 -15 105 -15 85 0 106 -4 151 -25 60 -29 58 -29
58 -12 0 6 -24 24 -53 40 -48 25 -62 27 -159 27 -91 0 -107 -2 -102 -15z"/>
<path d="M320 2530 c32 -25 39 -25 33 0 -4 14 -14 20 -32 20 l-26 0 25 -20z"/>
<path d="M2130 2530 c0 -5 9 -10 21 -10 11 0 17 5 14 10 -3 6 -13 10 -21 10
-8 0 -14 -4 -14 -10z"/>
<path d="M235 2517 c-4 -10 -5 -21 -1 -24 10 -10 18 4 13 24 -4 17 -4 17 -12
0z"/>
<path d="M338 2486 c-10 -7 -15 -16 -11 -19 11 -12 21 -7 26 13 3 11 4 20 4
20 -1 0 -10 -7 -19 -14z"/>
<path d="M245 2472 c-12 -8 -14 -72 -2 -72 8 0 9 5 11 50 0 17 1 30 1 30 0 0
-5 -4 -10 -8z"/>
<path d="M321 2441 l-24 -7 26 -17 c27 -17 27 -17 27 8 0 14 -1 25 -2 24 -2
-1 -14 -4 -27 -8z"/>
<path d="M1080 2446 c0 -2 8 -10 18 -17 15 -13 16 -12 3 4 -13 16 -21 21 -21
13z"/>
<path d="M1550 2428 c14 -5 33 -14 43 -19 21 -11 37 -4 37 17 0 10 -13 14 -52
13 -46 0 -50 -2 -28 -11z"/>
<path d="M1657 2391 c3 -12 10 -21 15 -21 13 0 6 32 -9 37 -7 3 -9 -3 -6 -16z"/>
<path d="M326 2371 c-3 -5 1 -11 9 -15 9 -3 15 0 15 9 0 16 -16 20 -24 6z"/>
<path d="M1120 2376 c0 -2 8 -10 18 -17 15 -13 16 -12 3 4 -13 16 -21 21 -21
13z"/>
<path d="M4216 2355 c-18 -14 -16 -15 33 -15 46 0 52 2 41 15 -16 19 -49 19
-74 0z"/>
<path d="M4370 2355 c-11 -13 -8 -15 18 -15 33 0 97 -24 107 -40 10 -17 25
-11 25 10 0 11 -6 20 -13 20 -7 0 -30 9 -52 20 -47 24 -68 25 -85 5z"/>
<path d="M240 2358 c-2 -11 -2 -76 0 -85 1 -5 6 5 10 20 5 16 5 38 0 50 -5 12
-9 19 -10 15z"/>
<path d="M1657 2339 c6 -22 23 -26 23 -5 0 8 -6 16 -14 19 -10 4 -12 0 -9 -14z"/>
<path d="M315 2331 l-30 -7 33 -11 c29 -11 32 -10 32 8 0 10 -1 18 -2 18 -2
-1 -16 -4 -33 -8z"/>
<path d="M1605 2300 c3 -5 8 -10 11 -10 2 0 4 5 4 10 0 6 -5 10 -11 10 -5 0
-7 -4 -4 -10z"/>
<path d="M1660 2276 c0 -14 5 -26 10 -26 6 0 10 9 10 19 0 11 -4 23 -10 26 -6
4 -10 -5 -10 -19z"/>
<path d="M2154 2291 c-2 -2 -4 -123 -4 -267 0 -222 2 -265 15 -278 9 -8 23
-12 31 -9 11 4 12 8 4 13 -21 13 153 18 230 7 73 -11 74 -12 35 -19 -22 -4 11
-5 73 -2 221 9 328 80 354 236 10 55 9 72 -6 119 -18 55 -69 121 -117 151 -72
45 -113 50 -367 52 -134 0 -246 -1 -248 -3z"/>
<path d="M2092 2278 c-13 -13 -14 -88 -3 -128 5 -18 9 -1 13 55 3 44 5 81 4
82 -1 2 -8 -3 -14 -9z"/>
<path d="M340 2261 c0 -5 5 -13 10 -16 6 -3 10 -2 10 4 0 5 -4 13 -10 16 -5 3
-10 2 -10 -4z"/>
<path d="M0 1613 l0 -650 25 5 c14 2 25 8 25 12 0 5 8 6 18 4 9 -3 28 5 41 17
13 12 34 23 46 25 13 1 38 7 57 14 24 9 53 10 105 3 l72 -9 -2 27 c-1 15 -5
25 -9 23 -4 -3 -10 8 -14 23 -4 15 -15 39 -24 53 -10 14 -20 35 -24 47 -4 11
-13 27 -21 33 -8 7 -15 19 -15 26 0 8 -17 49 -38 92 -21 42 -51 111 -66 152
-15 41 -32 84 -37 95 -29 65 -87 288 -100 385 -5 36 -13 110 -19 164 -5 55
-12 101 -15 104 -3 3 -5 -287 -5 -645z"/>
<path d="M1600 2251 c0 -6 5 -13 10 -16 6 -3 10 1 10 9 0 9 -4 16 -10 16 -5 0
-10 -4 -10 -9z"/>
<path d="M1660 2201 c0 -42 15 -46 17 -5 1 19 -3 34 -8 34 -5 0 -9 -13 -9 -29z"/>
<path d="M343 2213 c-18 -7 -16 -23 2 -23 8 0 15 7 15 15 0 8 -1 15 -2 14 -2
0 -9 -3 -15 -6z"/>
<path d="M240 2189 c0 -8 7 -24 16 -35 14 -18 15 -18 8 6 -8 31 -24 50 -24 29z"/>
<path d="M553 2120 c-1 -57 2 -80 12 -84 7 -2 19 -30 26 -61 7 -31 15 -58 19
-60 14 -8 -21 118 -36 133 -10 10 -13 22 -8 36 9 27 8 81 -3 100 -5 8 -9 -17
-10 -64z"/>
<path d="M325 2166 l-30 -13 35 -5 c41 -7 39 -7 31 14 -5 14 -10 15 -36 4z"/>
<path d="M1415 2160 c3 -5 8 -10 11 -10 2 0 4 5 4 10 0 6 -5 10 -11 10 -5 0
-7 -4 -4 -10z"/>
<path d="M350 2100 c-13 -8 -12 -10 3 -10 9 0 17 5 17 10 0 12 -1 12 -20 0z"/>
<path d="M261 2063 c0 -16 4 -37 8 -48 6 -14 8 -7 9 28 1 26 -3 47 -8 47 -6 0
-10 -12 -9 -27z"/>
<path d="M1002 2060 c-13 -11 -22 -24 -20 -28 1 -5 13 4 26 20 27 33 26 35 -6
8z"/>
<path d="M350 2045 c27 -14 36 -13 25 4 -3 6 -16 11 -28 11 -21 -1 -21 -1 3
-15z"/>
<path d="M370 1989 c0 -5 5 -7 10 -4 6 3 10 8 10 11 0 2 -4 4 -10 4 -5 0 -10
-5 -10 -11z"/>
<path d="M1070 1986 c0 -26 51 -159 91 -236 42 -82 136 -211 158 -218 7 -2
-12 33 -44 79 -31 46 -84 140 -117 209 -33 69 -64 133 -69 143 -5 10 -7 22 -4
27 4 6 1 10 -4 10 -6 0 -11 -6 -11 -14z"/>
<path d="M282 1950 c8 -55 42 -180 50 -180 8 0 4 22 -22 124 -22 85 -35 113
-28 56z"/>
<path d="M362 1951 c-10 -6 -7 -10 12 -13 16 -3 25 -1 23 5 -5 15 -20 18 -35
8z"/>
<path d="M1222 1887 c-14 -16 19 -91 80 -184 39 -61 58 -72 58 -34 0 22 -23
44 -35 33 -5 -4 -5 -2 -2 4 5 8 -71 174 -88 192 -1 1 -7 -3 -13 -11z"/>
<path d="M3930 1880 l-175 -5 -46 -50 c-116 -128 -167 -187 -206 -241 -179
-254 -441 -436 -768 -533 -83 -25 -90 -29 -93 -54 -4 -31 -12 -30 98 -6 116
25 282 97 402 175 53 34 67 48 70 71 2 20 9 29 25 31 13 2 28 16 37 36 13 28
21 33 53 34 34 1 46 9 105 72 38 40 92 109 122 153 30 45 69 98 86 117 84 93
145 152 165 160 12 5 143 9 291 11 236 2 273 0 301 -14 18 -9 37 -17 43 -17
21 0 9 26 -23 48 -37 24 -75 25 -487 12z"/>
<path d="M602 1855 c6 -14 15 -25 19 -25 4 0 2 11 -4 25 -7 14 -15 25 -19 25
-4 0 -2 -11 4 -25z"/>
<path d="M375 1840 c-4 -6 5 -10 19 -10 14 0 26 5 26 10 0 6 -9 10 -19 10 -11
0 -23 -4 -26 -10z"/>
<path d="M3805 1822 c-6 -4 -37 -38 -70 -77 -57 -67 -58 -68 -14 -29 63 57 82
66 113 54 25 -9 25 -10 12 -52 -26 -81 -81 -204 -96 -213 -6 -3 -8 -11 -4 -16
3 -5 -12 -31 -33 -57 -21 -26 -51 -63 -65 -82 -91 -121 -264 -269 -433 -372
-149 -90 -330 -160 -512 -199 -57 -12 -111 -28 -120 -35 -16 -12 -10 -13 40
-14 58 0 202 32 308 69 260 89 534 279 724 501 99 115 226 321 276 446 6 16
13 24 16 17 7 -20 -91 -215 -164 -323 -176 -261 -409 -461 -695 -594 -105 -49
-290 -109 -388 -126 -84 -14 -132 -29 -125 -40 3 -5 -1 -11 -7 -13 -7 -3 6 -6
30 -6 62 -1 230 36 346 76 436 151 796 472 1010 900 20 40 36 79 36 88 0 8 5
15 11 15 15 0 4 -31 -57 -154 -53 -107 -176 -304 -198 -318 -8 -5 -7 -8 2 -8
9 0 11 -7 6 -22 -8 -27 -22 -37 -49 -38 -22 -1 -53 -41 -84 -107 -12 -25 -29
-44 -43 -48 -41 -12 -100 -58 -124 -97 -17 -27 -31 -38 -48 -38 -30 0 -122
-59 -135 -86 -12 -26 -67 -39 -89 -22 -13 11 -14 11 -7 -1 6 -11 4 -13 -9 -8
-11 5 -15 3 -10 -5 5 -8 2 -9 -9 -5 -10 4 -16 2 -14 -5 1 -7 -6 -14 -17 -16
-13 -3 -16 0 -11 9 5 8 4 10 -4 5 -6 -4 -9 -11 -7 -14 2 -4 -4 -18 -13 -31
-14 -18 -29 -24 -67 -26 l-49 -3 60 28 c75 35 59 39 -23 5 -67 -27 -323 -95
-359 -95 -12 0 -34 -5 -50 -11 -26 -10 -27 -11 -9 -21 13 -7 24 -8 35 -1 9 6
32 14 51 18 l35 7 -24 -21 c-30 -26 -25 -26 49 -1 41 14 72 18 103 14 37 -5
47 -3 70 18 31 29 88 48 145 48 31 0 43 5 55 24 20 30 97 66 141 66 28 0 38 5
48 27 19 40 86 82 130 83 33 0 38 4 48 35 12 37 77 95 106 95 29 0 40 11 64
63 24 51 71 97 100 97 21 0 35 16 43 51 9 38 64 109 95 122 21 9 28 20 30 47
7 64 68 155 97 144 11 -4 25 16 54 75 21 44 44 95 50 113 8 22 14 29 22 21 7
-7 -4 -41 -39 -116 -28 -58 -48 -108 -46 -110 7 -7 -54 -107 -87 -145 -16 -18
-29 -37 -29 -42 0 -16 -77 -119 -104 -141 -14 -11 -26 -26 -26 -32 0 -14 -93
-114 -130 -140 l-25 -18 30 6 c33 7 108 74 131 118 11 20 22 27 45 27 29 0 30
-1 23 -37 -4 -21 -22 -59 -41 -85 -18 -26 -33 -51 -33 -55 0 -5 -34 -44 -75
-88 -41 -44 -70 -81 -65 -83 13 -5 176 158 184 183 4 11 22 31 41 45 20 14 49
47 66 74 24 38 33 46 40 35 8 -12 9 -12 8 1 -4 22 39 88 62 95 17 6 23 17 20
38 0 4 3 7 7 7 5 0 16 17 25 38 9 21 26 48 37 59 11 12 20 29 20 37 0 8 8 19
18 25 9 5 16 13 16 18 -2 12 14 53 36 94 11 20 20 45 20 55 0 21 40 107 53
112 4 2 7 16 7 32 0 31 19 43 56 34 33 -8 49 -38 30 -56 -7 -8 -17 -33 -21
-56 -4 -23 -11 -44 -16 -48 -5 -3 -9 -14 -9 -24 0 -10 -7 -25 -15 -34 -8 -8
-15 -24 -15 -35 0 -12 -4 -21 -10 -21 -5 0 -10 -11 -10 -25 0 -14 -4 -25 -9
-25 -5 0 -12 -14 -16 -30 -4 -17 -10 -28 -14 -26 -4 3 -8 -7 -9 -21 -3 -35 -1
-32 51 72 43 85 117 282 117 309 0 7 -17 22 -39 34 -37 21 -50 22 -307 22
-148 0 -274 -4 -279 -8z m465 -43 c0 -11 -13 -50 -30 -86 -16 -35 -30 -70 -30
-77 0 -7 -11 -23 -25 -36 -14 -13 -25 -31 -25 -41 0 -10 -5 -21 -11 -24 -7 -5
-9 19 -5 77 11 177 23 206 89 207 31 1 37 -2 37 -20z m-1392 -1121 c-3 -8 -24
-14 -49 -15 l-44 -2 35 14 c45 17 63 18 58 3z"/>
<path d="M420 1780 c0 -5 5 -10 10 -10 6 0 10 5 10 10 0 6 -4 10 -10 10 -5 0
-10 -4 -10 -10z"/>
<path d="M4358 1763 c7 -3 16 -2 19 1 4 3 -2 6 -13 5 -11 0 -14 -3 -6 -6z"/>
<path d="M335 1750 c-4 -6 -2 -17 4 -24 7 -8 11 -18 9 -22 -1 -5 4 -20 11 -32
7 -13 10 -26 7 -29 -3 -3 1 -12 9 -20 8 -8 15 -23 15 -33 0 -10 5 -22 10 -25
6 -3 10 -15 10 -26 0 -10 5 -19 10 -19 6 0 10 9 10 20 0 11 -4 20 -8 20 -5 0
-9 6 -10 13 -1 17 -57 175 -64 182 -3 4 -9 1 -13 -5z"/>
<path d="M420 1740 c-8 -5 -12 -12 -9 -15 8 -8 39 5 39 16 0 11 -11 11 -30 -1z"/>
<path d="M425 1690 c-8 -13 15 -13 35 0 12 8 11 10 -7 10 -12 0 -25 -4 -28
-10z"/>
<path d="M680 1640 c0 -5 5 -10 11 -10 5 0 7 5 4 10 -3 6 -8 10 -11 10 -2 0
-4 -4 -4 -10z"/>
<path d="M3199 1603 c-13 -16 -12 -17 4 -4 16 13 21 21 13 21 -2 0 -10 -8 -17
-17z"/>
<path d="M470 1590 c-12 -8 -11 -10 7 -10 12 0 25 5 28 10 8 13 -15 13 -35 0z"/>
<path d="M790 1581 c0 -6 4 -13 10 -16 6 -3 7 1 4 9 -7 18 -14 21 -14 7z"/>
<path d="M3519 1483 c-35 -43 -81 -97 -102 -119 -33 -35 -67 -86 -67 -100 0
-24 97 67 182 170 59 72 71 96 58 116 -5 8 -29 -16 -71 -67z"/>
<path d="M3604 1490 c-50 -56 -103 -128 -98 -133 13 -13 58 10 87 47 61 74 71
94 55 109 -11 10 -18 6 -44 -23z"/>
<path d="M435 1488 c25 -83 130 -268 153 -268 6 0 12 2 12 5 0 13 -41 85 -48
85 -4 0 -13 15 -20 34 -7 18 -21 41 -32 51 -11 10 -20 24 -20 31 0 20 -32 84
-43 84 -4 0 -5 -10 -2 -22z"/>
<path d="M515 1490 c-3 -5 1 -10 9 -10 9 0 16 5 16 10 0 6 -4 10 -9 10 -6 0
-13 -4 -16 -10z"/>
<path d="M3631 1423 c-33 -42 -61 -84 -61 -93 0 -19 -33 -53 -42 -44 -4 3 -9
-5 -14 -18 -8 -25 -32 -47 -52 -48 -7 0 -43 -24 -80 -54 -204 -163 -431 -273
-678 -325 -122 -26 -164 -40 -164 -52 0 -15 90 -10 185 11 202 45 385 123 560
241 167 111 425 380 425 441 0 32 -17 19 -79 -59z"/>
<path d="M3970 1440 c-6 -11 -8 -20 -6 -20 3 0 10 9 16 20 6 11 8 20 6 20 -3
0 -10 -9 -16 -20z"/>
<path d="M1275 1398 c0 -13 7 -32 15 -43 30 -41 174 -167 248 -217 87 -59 257
-142 272 -133 22 14 7 32 -47 59 -153 73 -311 183 -417 288 -38 37 -69 68 -70
68 -1 0 -2 -10 -1 -22z"/>
<path d="M565 1390 c-8 -13 5 -13 25 0 13 8 13 10 -2 10 -9 0 -20 -4 -23 -10z"/>
<path d="M1205 1349 c4 -6 18 -14 31 -19 13 -5 28 -20 33 -32 12 -30 108 -122
200 -191 73 -55 207 -127 307 -166 l51 -20 -1 22 c-1 17 -23 33 -102 73 -125
64 -246 143 -343 222 -41 34 -77 59 -80 56 -3 -3 1 -9 9 -14 8 -5 11 -12 7
-16 -11 -11 -38 17 -33 35 3 9 0 23 -7 32 -14 18 -82 35 -72 18z"/>
<path d="M2191 1352 l-34 -3 7 -222 c3 -122 6 -223 6 -224 1 -15 40 -33 70
-33 31 0 42 5 51 23 7 12 16 25 21 28 5 3 4 33 -3 72 -10 55 -10 77 2 124 20
83 18 153 -6 188 -11 17 -19 33 -18 36 3 9 -53 15 -96 11z"/>
<path d="M1420 1309 c90 -81 189 -150 285 -199 54 -27 102 -50 107 -50 5 0 8
12 6 28 -3 23 -16 34 -89 72 -47 25 -123 74 -170 109 -81 62 -122 81 -164 81
-16 -1 -11 -9 25 -41z"/>
<path d="M1565 1340 c-7 -12 223 -160 248 -160 4 0 7 9 7 20 0 13 -12 27 -31
38 -17 9 -57 34 -89 54 -62 39 -126 62 -135 48z"/>
<path d="M1755 1339 c4 -5 19 -16 36 -24 25 -14 29 -14 29 -1 0 8 -5 18 -12
22 -18 12 -59 14 -53 3z"/>
<path d="M4230 1339 c0 -5 5 -7 10 -4 6 3 10 8 10 11 0 2 -4 4 -10 4 -5 0 -10
-5 -10 -11z"/>
<path d="M1517 1333 c-10 -16 205 -158 273 -182 48 -16 25 6 -38 38 -31 16
-91 53 -133 83 -96 70 -97 70 -102 61z"/>
<path d="M1660 1335 c0 -7 135 -85 148 -85 29 0 7 31 -42 59 -46 27 -106 41
-106 26z"/>
<path d="M3457 1322 c-10 -10 -17 -24 -17 -31 0 -19 37 5 43 29 6 25 -5 26
-26 2z"/>
<path d="M3870 1290 c-17 -22 -29 -40 -27 -40 3 0 20 18 37 40 17 22 29 40 27
40 -3 0 -20 -18 -37 -40z"/>
<path d="M630 1295 c-11 -13 -10 -14 4 -9 9 3 16 10 16 15 0 13 -6 11 -20 -6z"/>
<path d="M3295 1183 c-193 -147 -426 -248 -691 -298 -73 -14 -90 -14 -99 -3
-5 7 -23 15 -39 16 -24 3 -28 1 -22 -13 3 -9 6 -19 6 -21 0 -2 19 -4 43 -4 30
0 38 -3 27 -10 -51 -32 114 -16 269 26 167 45 289 99 431 191 150 98 240 189
194 199 -5 1 -58 -36 -119 -83z"/>
<path d="M1233 1252 c-15 -9 44 -69 152 -154 155 -122 373 -229 464 -227 35 0
35 1 11 11 -130 58 -267 126 -320 161 -94 60 -257 185 -264 202 -6 16 -24 19
-43 7z"/>
<path d="M3050 1250 c0 -5 5 -10 10 -10 6 0 10 5 10 10 0 6 -4 10 -10 10 -5 0
-10 -4 -10 -10z"/>
<path d="M3295 1223 c-20 -30 -8 -29 30 2 27 22 28 24 7 22 -12 -1 -29 -12
-37 -24z"/>
<path d="M1135 1210 c10 -11 20 -20 23 -20 3 0 -3 9 -13 20 -10 11 -20 20 -23
20 -3 0 3 -9 13 -20z"/>
<path d="M4070 1222 c0 -4 10 -13 23 -21 22 -14 22 -14 3 8 -20 22 -26 25 -26
13z"/>
<path d="M597 1203 c-3 -5 3 -19 13 -31 11 -12 20 -25 20 -30 0 -4 16 -25 35
-47 20 -21 49 -56 64 -77 17 -23 32 -35 36 -29 3 6 -1 14 -9 17 -9 3 -16 15
-16 25 0 10 -7 19 -15 19 -14 0 -33 52 -27 73 1 4 -5 7 -13 7 -8 0 -15 7 -15
15 0 8 -5 15 -12 15 -7 0 -22 12 -34 27 -12 15 -23 22 -27 16z"/>
<path d="M3130 1143 c-91 -56 -239 -123 -340 -152 -245 -72 -291 -91 -221 -91
100 0 324 67 476 141 79 39 225 133 225 145 0 2 -15 4 -32 4 -21 0 -60 -17
-108 -47z"/>
<path d="M1179 1163 c6 -11 30 -37 53 -56 24 -20 39 -39 35 -43 -4 -4 -17 1
-29 12 -12 10 -18 13 -14 6 12 -20 136 -116 228 -176 108 -71 178 -102 189
-84 11 18 -5 33 -79 74 -133 73 -329 214 -380 274 -11 13 -11 12 -3 -7z m122
-120 c13 -15 12 -15 -8 -4 -24 12 -29 21 -14 21 5 0 15 -7 22 -17z"/>
<path d="M717 1149 c-6 -22 6 -25 22 -5 9 10 8 15 -3 19 -8 3 -16 -2 -19 -14z"/>
<path d="M940 1131 c0 -9 30 -24 36 -18 2 1 -6 8 -16 15 -11 7 -20 8 -20 3z"/>
<path d="M4010 1126 c0 -2 8 -10 18 -17 15 -13 16 -12 3 4 -13 16 -21 21 -21
13z"/>
<path d="M990 1106 c0 -4 5 -12 10 -19 6 -7 19 -23 30 -37 l21 -25 -15 31
c-14 29 -46 64 -46 50z"/>
<path d="M795 1060 c-3 -5 -1 -10 4 -10 6 0 11 5 11 10 0 6 -2 10 -4 10 -3 0
-8 -4 -11 -10z"/>
<path d="M560 1030 c0 -5 5 -10 11 -10 5 0 7 5 4 10 -3 6 -8 10 -11 10 -2 0
-4 -4 -4 -10z"/>
<path d="M3930 1036 c0 -2 8 -10 18 -17 15 -13 16 -12 3 4 -13 16 -21 21 -21
13z"/>
<path d="M865 970 c-3 -5 -1 -10 4 -10 6 0 11 5 11 10 0 6 -2 10 -4 10 -3 0
-8 -4 -11 -10z"/>
<path d="M1337 942 c76 -59 237 -160 268 -168 46 -11 22 10 -63 57 -42 23
-114 66 -160 96 -45 29 -85 53 -88 53 -3 0 16 -17 43 -38z"/>
<path d="M3580 935 c-19 -19 -39 -35 -46 -35 -6 0 -22 -9 -35 -20 l-24 -20 31
10 c32 11 137 99 118 100 -5 0 -25 -16 -44 -35z"/>
<path d="M1150 947 c0 -2 11 -13 25 -25 27 -24 35 -13 9 12 -14 14 -34 22 -34
13z"/>
<path d="M1370 836 c0 -2 7 -7 16 -10 8 -3 12 -2 9 4 -6 10 -25 14 -25 6z"/>
<path d="M3425 820 c-27 -30 -12 -34 15 -5 13 14 19 25 13 25 -5 0 -18 -9 -28
-20z"/>
<path d="M1444 816 c11 -9 24 -16 30 -16 12 0 7 5 -24 19 -24 11 -24 11 -6 -3z"/>
<path d="M1681 809 c20 -30 61 -51 104 -52 19 -1 32 -4 29 -8 -2 -4 5 -5 17
-2 11 3 17 9 12 13 -9 9 -113 53 -153 65 -24 7 -24 7 -9 -16z"/>
<path d="M1324 805 c16 -9 32 -13 35 -10 8 9 -21 25 -44 25 -16 0 -14 -3 9
-15z"/>
<path d="M1490 794 c0 -2 9 -8 20 -14 11 -6 20 -7 20 -2 0 6 -9 12 -20 15 -11
3 -20 3 -20 1z"/>
<path d="M3598 770 c-25 -22 -29 -29 -15 -30 9 0 17 7 17 16 0 9 9 18 20 21
11 3 20 9 20 14 0 15 -8 11 -42 -21z"/>
<path d="M3260 719 c-25 -23 -35 -36 -23 -30 12 6 25 16 29 22 3 6 25 20 48
30 34 16 37 19 16 19 -15 0 -42 -16 -70 -41z"/>
<path d="M1753 709 c9 -5 17 -17 17 -24 0 -8 7 -15 15 -15 24 0 17 26 -10 38
-32 15 -46 15 -22 1z"/>
<path d="M3496 701 c-4 -7 -5 -15 -2 -18 9 -9 19 4 14 18 -4 11 -6 11 -12 0z"/>
<path d="M3497 460 c-48 -27 -89 -50 -91 -50 -2 0 -37 -15 -78 -34 -77 -36
-219 -89 -224 -84 -1 2 45 26 104 53 110 51 218 111 228 126 6 11 -14 3 -99
-38 -204 -99 -343 -146 -660 -219 -87 -20 -156 -39 -153 -41 12 -12 179 -3
286 16 276 48 493 133 749 293 75 47 30 31 -62 -22z"/>
<path d="M1793 486 c-18 -21 6 -47 43 -48 51 -2 60 11 29 38 -31 27 -54 30
-72 10z"/>
<path d="M2595 486 c-88 -32 -122 -75 -79 -102 13 -9 24 -23 24 -32 0 -13 2
-13 14 3 8 11 19 16 30 12 9 -4 25 -1 36 5 14 9 22 9 34 -1 11 -9 16 -10 16
-2 0 15 30 14 30 -1 1 -8 7 -5 15 6 9 12 22 17 39 14 14 -3 27 0 29 6 3 8 8 7
18 -1 12 -10 19 -8 32 8 10 11 22 17 28 14 5 -4 16 -2 24 5 10 8 15 8 20 0 5
-8 15 -4 30 10 13 12 28 19 34 16 5 -4 13 -1 17 5 8 13 -2 12 -136 -20 -47
-11 -103 -20 -125 -20 -23 -1 -46 -6 -51 -11 -16 -16 -71 7 -78 33 -4 15 1 27
17 39 28 21 20 27 -18 14z"/>
<path d="M3455 490 c-3 -5 -2 -10 4 -10 5 0 13 5 16 10 3 6 2 10 -4 10 -5 0
-13 -4 -16 -10z"/>
<path d="M3065 470 c3 -5 8 -10 11 -10 2 0 4 5 4 10 0 6 -5 10 -11 10 -5 0 -7
-4 -4 -10z"/>
<path d="M3906 452 c-6 -10 63 -37 71 -28 3 3 -6 8 -21 12 -14 3 -26 10 -26
15 0 11 -17 12 -24 1z"/>
<path d="M3995 450 c-3 -5 -1 -10 4 -10 6 0 11 5 11 10 0 6 -2 10 -4 10 -3 0
-8 -4 -11 -10z"/>
<path d="M1355 427 c30 -21 92 -52 179 -92 89 -41 94 -57 11 -30 -31 9 -59 15
-62 12 -11 -11 249 -81 342 -92 47 -5 45 -4 -35 25 -47 16 -112 43 -145 58
-33 16 -89 41 -125 56 -36 15 -86 38 -112 52 -51 26 -86 33 -53 11z"/>
<path d="M1046 329 c-78 -11 -86 -22 -10 -13 64 8 125 23 89 22 -11 0 -47 -4
-79 -9z"/>
<path d="M1440 330 c8 -5 20 -10 25 -10 6 0 3 5 -5 10 -8 5 -19 10 -25 10 -5
0 -3 -5 5 -10z"/>
<path d="M3850 330 l-35 -7 43 -2 c23 0 42 4 42 9 0 6 -3 9 -7 9 -5 -1 -24 -5
-43 -9z"/>
<path d="M928 303 c6 -2 18 -2 25 0 6 3 1 5 -13 5 -14 0 -19 -2 -12 -5z"/>
<path d="M868 293 c7 -3 16 -2 19 1 4 3 -2 6 -13 5 -11 0 -14 -3 -6 -6z"/>
<path d="M2785 290 c-3 -5 -1 -10 4 -10 6 0 11 5 11 10 0 6 -2 10 -4 10 -3 0
-8 -4 -11 -10z"/>
<path d="M800 283 c-16 -7 -49 -44 -50 -55 0 -14 23 -8 37 10 15 19 35 52 31
51 -2 0 -10 -3 -18 -6z"/>
<path d="M1045 213 c-15 -26 -38 -64 -51 -83 -15 -21 -20 -36 -13 -39 15 -5
22 4 64 87 42 82 42 110 0 35z"/>
<path d="M648 233 c12 -2 32 -2 45 0 12 2 2 4 -23 4 -25 0 -35 -2 -22 -4z"/>
<path d="M708 213 c7 -3 16 -2 19 1 4 3 -2 6 -13 5 -11 0 -14 -3 -6 -6z"/>
<path d="M1162 110 c-45 -97 -52 -120 -27 -100 8 7 15 16 15 20 0 5 16 43 35
84 38 82 39 86 27 86 -4 0 -27 -41 -50 -90z"/>
<path d="M1405 138 c-48 -119 -54 -138 -46 -138 4 0 20 28 35 63 15 34 33 74
41 90 12 22 12 27 1 27 -8 0 -22 -19 -31 -42z"/>
<path d="M1530 167 c0 -2 -13 -40 -30 -85 -28 -76 -28 -82 -11 -82 10 0 21 8
24 18 3 9 16 47 30 85 24 64 24 67 6 67 -10 0 -19 -1 -19 -3z"/>
<path d="M1616 140 c-13 -33 -35 -114 -32 -118 7 -6 47 110 43 122 -3 7 -7 5
-11 -4z"/>
<path d="M815 130 c-3 -5 -1 -10 5 -10 7 0 10 -7 6 -15 -3 -8 -1 -15 5 -15 5
0 12 7 15 15 4 9 19 15 35 15 16 0 29 5 29 10 0 6 -20 10 -44 10 -25 0 -48 -4
-51 -10z"/>
<path d="M1727 68 c-9 -37 -2 -63 19 -65 10 -2 14 0 7 3 -9 4 -8 14 4 39 14
30 21 34 62 38 37 3 33 4 -20 5 -62 2 -67 0 -72 -20z"/>
<path d="M841 44 c-28 -48 -20 -56 9 -9 12 20 20 38 17 41 -2 3 -14 -12 -26
-32z"/>
<path d="M1820 60 c0 -5 18 -10 41 -10 24 0 38 4 34 10 -3 6 -22 10 -41 10
-19 0 -34 -4 -34 -10z"/>
<path d="M420 10 c-11 -7 -5 -10 23 -10 20 0 37 5 37 10 0 13 -40 13 -60 0z"/>
<path d="M3798 3 c23 -2 61 -2 85 0 23 2 4 4 -43 4 -47 0 -66 -2 -42 -4z"/>
</g>
</svg>
